<mxfile host="app.diagrams.net" modified="2022-11-10T10:04:53.825Z" agent="5.0 (Windows NT 10.0; Win64; x64) AppleWebKit/537.36 (KHTML, like Gecko) Chrome/107.0.0.0 Safari/537.36 Edg/107.0.1418.35" etag="BsyP3nJVXFPa_2N5Jf0d" version="20.5.2" type="github">
  <diagram id="auVc-Jh2uFd_onNNaBG4" name="Page-1">
    <mxGraphModel dx="595" dy="344" grid="1" gridSize="10" guides="1" tooltips="1" connect="1" arrows="1" fold="1" page="1" pageScale="1" pageWidth="827" pageHeight="1169" math="0" shadow="0">
      <root>
        <mxCell id="0" />
        <mxCell id="1" parent="0" />
        <mxCell id="8YmZ6xVBmyaVIvuBDo67-1" value="" style="whiteSpace=wrap;html=1;aspect=fixed;" vertex="1" parent="1">
          <mxGeometry x="140" y="20" width="520" height="520" as="geometry" />
        </mxCell>
        <mxCell id="8YmZ6xVBmyaVIvuBDo67-4" value="" style="endArrow=none;html=1;rounded=0;exitX=0.25;exitY=0;exitDx=0;exitDy=0;" edge="1" parent="1" source="8YmZ6xVBmyaVIvuBDo67-1">
          <mxGeometry width="50" height="50" relative="1" as="geometry">
            <mxPoint x="220" y="230" as="sourcePoint" />
            <mxPoint x="270" y="540" as="targetPoint" />
          </mxGeometry>
        </mxCell>
        <mxCell id="8YmZ6xVBmyaVIvuBDo67-9" value="" style="shape=image;verticalLabelPosition=bottom;labelBackgroundColor=default;verticalAlign=top;aspect=fixed;imageAspect=0;image=data:image/png,iVBORw0KGgoAAAANSUhEUgAAANoAAAEOCAYAAADvxQlWAAAAAXNSR0IArs4c6QAAAARnQU1BAACxjwv8YQUAAAAJcEhZcwAADsMAAA7DAcdvqGQAAMtxSURBVHhe7P3Js/fdVdf/X4B93ytIJAHSkgQSAiGEUkvLoVrOGWiVM/0HnDlxajlz4MApJlVqlZSlhQ1IBemSGGI6E0CwRez7Fr734537eXxd+36fc193EvzVr4pVtWrvvfbq91r7/f58zjnX9WVf+7Vf+/PPfhF+EX4RfkHhy18efxF+EX4RfgHhy972trf9/Pve976Xl/8XvuzLvuzl2fMQ/bH9O7jjXT0///Off6ian7ztw5UBaD/3cz/37H/9r//17H/8j/9xIfif//N/Pvvv//2/X3M86L/sl/2yZ1/xFV9x8Yf0oP2f//N/rjkkR775l3/5l1/jr/pVv+riC//3//7f1x6gIzvkfvkv/+UX3T4+e+xDtP/8n//zpePX/tpf++y3//bf/uw3/sbfeOm3/0t/6S+9eH7JL/klDz6RB8ZsmothId7oyVujm4P0tQfQojdPDrAb3dxeKO7/+l//64U/8zM/c9GcCV5x4JcH8cpVeZKD//bf/tvFL2486PLxlV/5lddYztDpK4bHIH8bwc7BU3qib56fgjs9yXzqU5969tM//dPX/Gq07/zO77wOnFAYrKHdP52N1jx8DAokueVfuZLsMNYXgO7QFO5/+k//6ULwr//1v75ov+JX/Ipn/+7f/btL9tf8ml9zNQB+UPPQ/1/+y3+55uBnf/ZnryKxj07Hv/23//Y6dEAfGc2oCBQLvTU7H3/lr/yVF4/CM1dEv+W3/JbLD/rp/s2/+Tc/e/vb3/7sLW95y7Pf9tt+21WEeOnCD+ioicNyQ1c52bzxBx0Y6YgPgvhB9HiSJ7frkKw98XZJyfV//I//8Yrtp37qp579s3/2z678aKJf/at/9RWTXIjx1/26X3et8TiTf//v//2FxarZ5OY973nPsze/+c1X3tC7eADeE4qNj407t59888ZwYfO+eyef/RPi+XN/7s89+yf/5J9c88tjjsMMwmgMhtHiXfopB5Z26llIvnn8yxctnRLvUGqKbkOH61DxO0D7eytaO2gNlJ5f/+t//bWvUSumigTtDW94w+WD4lEoeMhJMt38Yh/UKJoUnR0FRdZtz1dN+653vevZO97xjuvmVkx4NDsZuukxr1gCvi1uTiqMYj15jPaC+CtEkP3skrOG6Tlt2BOzWH/n7/yd18WBVwz45Oy3/tbfes01pfP5Db/hN1xjT3L5s2/uYvvxH//x61JzednLP37lbzRgfu61DlwKJ8azeO7veumvhuvfQ9YFuclrvdBeyT15W8fb2LwExL+4fCAn7QX24xeIgB1Cc6PDSbYmUwQOXrErBjSHr8HQxGJUBHRoMjS8eBRERZo/+EGN5mlkDskbvSVoIL5pWP4owm//9m9/9o3f+I3PXve6111NRpYt2NMQGLfAy88e4o7Ls74C8+WJL5p9ozVMNj4+lAP5FB+wNl//NZE5PhcLdGmhpaMm1FSa0LoLUsz//J//82f/9J/+0yuXzli+xR3kZ2dvXi3Ic/VQjbQHk1v55QErH1rjaQ7zY7F98+DKZsGX8Oa7jsfY3sLSmi8NnOsT6F+IN7n8KhhBd+MBByXJDrQkOexu255m6IojXqMGBfR7GnnNoYPNXkMVkT108r0WmcuLAsvH3/E7fse1p1AUGv2a7p3vfOezt771rc++6qu+6tlv+k2/6dJBbw1G9i7HYt5182RaN+/QWy9fc2PzYGkwPWJOxry1PY0hVjlr9Ponz2KWM3JixdvlIV/4/9W/+lfXnL7eJMj+xE/8xPVKCpzxNhDMN4jefH2sMVZu8aTHG30ba0e+PIb5uvDlHAtK7sJJYwgkV3B3cgvpORGk69QdnLbwGQUEk3NICpZedIcIAVp7CkFzRKsQHL5mdXvas+5Vb5NnryciP6x7ajoEdHNPMXJeYdG/9mu/9tkb3/jG66mmACtQ8ieCYhQf/0Cx4mEj+8kskLEfsLe05Ip9dZiX52xmK35IZzQxaRjx93nM52VzTyfgcpFzcbm85EJeNRR5czmXF7If/vCHr8tU/mDnAMtNe/wz4rdvvvvmi4/R0mukM73tNX81JBc8/wgZyMAdtFfCOzxjh2Vs/log3fAO0CXBKOhe4TSLQ1fw6HwxzzeH2itOh9Bcg/ZqYvQ0wkuP+BRKh6sIurErTvLmDlhxsYvX2FNWgflwT7eCUkj2yZMtJtghbQzlE8ZHpvgCa/rkApqvfDwgOXS64mnfmGw2s1sx5Xe5kFP5cTlBTeU1UNx95gLyK9eaUrPR0xPOBUUX/3/yJ3/y2Wc+85mHnOALrPPjbAB8y2uOZ3H5mj8W4/I8hvGnAzQ+2mhgBQIJCNpfPvuLXyiceoFgWjskBZwNcx+sN+EOGb9i7eZVEA4ZzaH2WohPE+Fz4OZ0KZqahU5yFQR/0NnpNTI79sjTQ/8+yawVMF8CchV2xV28jZBMcvgakwErhwatQTzGZJqH7YetAT27l1/mZMUhFz53uVxcSHLkNRCPJnIpymNn9dVf/dWXjKeahsSHJ72f/OQnr2YtLjJ0Wpsbm6PTm19o4fLjaUxX+/kV7cR0w+Ccx9f6odFORUEGF+wv3sm1hpIFlnf3H0M8m6Cll0xFZ57+nnBsOjw0DVATaAqNhg4kGS9koyeZZqDbE0qz2EfXzG7hbmZ0uhUOfvrYgZqYDP6v+7qvu4qPfAWeD+bAurxEAzvnI0A7MThp6Vu92Q6sT901XjLBysYL8MqB2OXRpeJy8WRzWZGTE03kLQCfEV2OgH1y+DtnT8LPfvaz1ys4yD5/2S5nEI0f1Qyko7W5EW/z5YvWfBE9PdlszzpMX36Cq9F+7mXiHQJjwhlZtN88njW+Ti5vNu4QxAfQFHG4OqFi7/WxtWZw4O05TA0BNVw3K/6apCeO5urw6cDjAH/X7/pdl6yGJq9xPPXoIYPHnG94yPrKG9JtDw96RVq8fIBoeOBZxNFhkJ7HMH7z+OUpYD++xnwCy5uOYNfJ4jcXr1y5rOjzmUuO5VJD4YtfzvHaxy8/NaGz/hf/4l9cP/zVbJ58zla+4dZBvp41eNZfPGF88S6NnjD51itz8m8Or9OyjClcwXOeMfPWYPnQ2ov/xByCp2xjetK1cu2bOyCFXaIdlKLWBA7Q6AkH3JYOmIwmpJN+Mq2h9X/4D//h4gd9S+ig8SkkzUiXwlFcZPijSKwVjdchfN32+Iuv4jSCaO0HxUrefrrO5muNJ52NQfvG/AHxsRNPaxAfsNd+uvLRXOPQ7QzkH49G8+qIR4OUVz9fJCN38otO3kVWLs3x2aPLeZGB+VGdbG3AzrP9eJrbUwsQPX7z+Kzpso6vsbn6g9HwB1fmKMop81WQ0TXWOsRnTEc8J9/Jc4fLm/z6gSffAjxuOAnHo9gcrkPQEMAoCZ5AeMSYDTrJ2zMH5MkoCHoVgaYxJ4sPv2JSPD29FAi9rb029QNp+rYRjK3p4wuwdyI+2H46YM2iqFc/MIfRd8/Ibnqig6Wde0H0dJY78aPJj3xoHjmwr2l8nW8uj4D/UM7FEJRb+pKD8kQ/HVsbYTEZyRqbw+oHb7QwHTuHyZNb/nTtHCYTPHy9n0KwTkVvfdIf2w+XZ/WeeDpsrBkWFbCRPgchoeZ4rdmI7uAUmFswGXT79Njb+H3JYa25NEmHCehSOBqSPFAU9LJtrqCs+Y9HYykwP7i21y1PL1z70fgHmwN8C9bxNQ+SXX14zI2Ly9N4QrTdSx5t6c3tAbHJY3xyIFe98smlNwG57aKUH7nkj3k1oNE8Ef3qlqcbGiTj7OScvdAeurnROp+sF+2dssm3T7/58u36bm/h86+OL2+msELfNUEY/TFc/uahpJU4I9opvzx3e2QKwmFoGIeA5mCMPTkcIJp5TxR60AEacFj2gGYADpstsuwoEkWjMNiwBnjkThPiVTDAmk5PQa+N9EK6KupwYdfm8YqjWILk2083HhhNzNHTGU+0RfE0t5/eaHeAvj50Bj3VfCkCnJUc8qlmA52L3KaLbL7g02C+vfzH//gfP7xF4CeLB6+1MbQXrXkIlrf1CStDx+px/nd1DBeuRlsFcAVX4WPN8RTmSHLpOvnCgm6dfbaNaOSBMX4HY1/CHbC1ZnCY1g6lRtMw5poJHxmHalQk9q17sikAurJLX3b7PIHPGtALNDKki0zxBengt5F9CPKFXLR4KuYQ7Prkb22kLx7zRXSjnMTPZ2MydIL8jt4eedAeXTWQp7s8ajbniVdOfQ6WIzR5XF3OyTnQFa9f1DX2doO3ujCGbOYLzGe4+6D9eJoHywviWViZU/6h0ThpDGsqwcDW0axh+3e4MqeuO7SHz9y4yeOT0Z4RFEgNYd1N6kCLyxchDlwD4KkJ8Vrj8/MeOvhQczlc4MsMPOyQrYDoRtdMZOgnR2c6+pkbGX6lM7uALsVlDe0BNJDNdEC05uk0B/HhgXyJb/kDtGyxbd4a787zFcS3PPyPJh90y7Unu3x0+dQ8nbWnVXrkK581oPM27/XSz9R8C0muejLi4/9itUIuH0G5hoE5/h1hsksLT3uwml24Mp4CDCGaURAFIlBYcPHGs7Q7PogGW7dvvKPzYwNENwrcwZBhy6GaA/MaDjo0CQB4yKKRt0+f0U2bLmt89hSXwoDAPp/oVDTZgfboJaPBoSeegsmnLX5ADxokn/38A+kE/FqIz7iy+KB1aJ2u9LC/fK3jjc989S4PBK1B+oBzM+efpvM1fbmS484erTiN8gs6W+cj95/73OeuZrNmEy/92aYTNt866uxaV2dowJh8fMUatLZ/IjjXl1cZb8yw5EDBhIpt1xJQUxitS1rFuXwwG6137+Rtzrf0AgHQ49WNjQ4bbkIcAFk6QJ+X3K72zB08qPnY6LDx+Tqf7QCPNZ5uX/qt+ZV+o0azH+R3cXRgfNz1InuKyJyNCrj58jVvH3Tg8YB4rFcuujHgmzUdgXm6gtb26NA0PcX6MYgL59/8m39zfU4rz9mVU2eZLJqRjDleMn3O81nNWH2wK7fGMH9APKB4Qmv78WxOQDzJ3cHyg50/NBpnBcHRsxF23vqkSVKNAM13P7S3jXo21onZcQDGEiEIiXczKmig6B2Mwu6Vw1oz4iXXfkVBz75aKgp8DhDNqx8fgQIga5/u7NGVn+bk8MWPRgYPOA9jDxWSOzE63hPZM64uY3JLh/iDUy60PvcC83QH5osbr7k8OCe2XWzO8V/+y3957UFr/Eb70YAmJUceTb3IvwvQU60fYKOlD34xkO0vVk9wVds6KFjrirwGag0FZY2+zRLiid8Yz/KtvniMGqp9NL60FjwfO2C8PhS7Ne07zA6ZbAVfXG5CRWPdoXeAGgZa+8E0W2yj2TcnyxZddGTTmF3yGjAkn7/Z7hC3kCHZeBasId74G5OJtvv5U1NEB8kszbhIfnkaQ7B+wS4DY5eQ/PmcZm10sflM7HNZgB/gx1Ne5d3cxWmPvZ5o6sLfs/kGUi04F/zrk1wb0U6g74T4shUCujq7pb8IPDSaoCpo65xuDu2FNU2j4I2wZjkRb/yt8Z78a8teuvkSlDy8bjwNUPAdMJSYCo29kkM3vl4lHSZd+P2Qma30KNYOjBwgo5HotmeOjxwb6HTCoENCsx/ipzufQ7ToxnwH0QF6e+h0JmvOr9aL2cHTHNpDE/9TsLrA+gHoYhutvDhH50k/6Eyzay3HvS46f2DexUWWHo3qaUZfPyvNB1i+GxfiuYPdu5P9QuA6KcoqbgEYrZuH597ur/w2T81lHW/7EhRfWKLTiWbOR3sF3qFIvhtSYhxAhwEqMDRwyjpcRd+6PfbowG+0h443Po3GJl7x2beusOjWxOTRwBZvvlWM0PwOQbx0LB2QrXBBRUIGimP5gXV8IP0rY395zMuheX4kAwPzbPLPKzn0tPI0I19e5RB0MWVDju2rAzrUih8ROE/x+tjg856GU0tGOvMdrE8n4LMPN05gHW3nJ7QH2YZ3vFcmbNYoxua7DhV+YygBNRSsOfClB9qTEGMNhm6MBle/ec7DkuMQySrcEiX5Dio+PMma01VirStOOszxkndgeKz5m50KB9Dp8O0DcunJbreytT38rRfRKi5zOmANZEw3SA7gD/HxK3q+JBfYC8zXj8aQrDHexYDNtWvevnk6ikeujJ0vtKexNKNaiEdTyY18emsB8gqrGb+WRce+QpbP/DqBP2KNb8Fe/gM68mERzV77zYOdX6dVsKHC2nWKzSm0X4Oc+8k2tgfJng4vb/P0mktcMmgdmiRZS7h9dPwbODTHX0OUXEjePt3AiJd9+0avJOYO3H7+kGMTTZFAutGBPYWhYNpDy386ALo1nl2HYMfkIV4YtA/oX7SXb8Epe+qlq/kiaMS/gE6OLZjd6PIRzdyIno/yIKcuFo2XjLPCE7/c4ncpajSf2ex3MeJbPAGNncf2F/jO1h2SZffV4MoWg1Aw8Cz8RcVXI9zt3yH+bh9jOprvHqeToR9NMNkqMYLE08EZJcSegzDHb5483afP+QCsgcPC220KKwB+AjZ7VTEH5OOHfHIR5A8/gDl9NSCMHtIJz3kI0MpHuqMBPiQLkovf/q6TA6vnhJMvWL8CvOwYixlqFPxyb91ZylVyzftyxNmhQzZ8ZEBzDr59BM6ns8azSC7IJ2heD8DdW1ywzoY4dozXPHhoNM5lyDykLLSnmE76iek5cZ3O0d0/5dnJP/zGcy2YDsQtaN1NmLx5epPTYDCaOX68NS99CkIhWOMxVhh+yRUkX6PSyV5PNDIQ0L8FGaLDpUG8YdAeG6AYyp/5HjpciHa3F6DTla2F9QXEE5JdGWuXlktHThrROqNk0OS3PBnltsbEJ6dybXTW5s6ip1r5xwuDfIuWPpDvJw9ofYf4y/VTcGVMsCGnt5mWrrh2f/nbXx7zClDwyZx86TGWKPMKqIRAfMaKQKKvQF7icUCSD/K9pmiezmznS/wVPH14zTUcGa+Rbtf8YwsdoMH0Ar7V/MDITjKN6OaN0e/AHjv0QPNkVvdpJwzsn/Z2H9hfDO50lzOw/HiBtXxpMj8+8c1uZyNf+OigC4+82U8WD/nOER8ZDQi8hfhLbDrKSXkC+QnQ4LmGZNhYnsb4gVhhMtmKb3nBlZmYjSHGOxo0371TabC8nA+t7zD9SyNfQMYOEV+HW2KiW4MOKN14zTtc8y6C4rBu3zy5wLqYNN36hpZeRaEgID/TD/m1UEwBXSftDvIlsAZ3+uPNd7R8esrW6ly+5W9O39JB+jsT+ZA3jSZHcu11T8xyFz86sLYnh86DjDkeyGZPRo1Gl/iShXjsQ3vW0Nz+8u58edpL9sR4kosWXBUUIUZw5wRcpc1TDMlBQVV00QsWrkz6Vlf8kolurABBcr1qQNAB4LUHsufwzI0wG0avHfSBDh+9p5mvkh2yb7Y62D6vmTt8IGbgabZFke748vOEOxpI3gg3b/xsbQzpig7yY0fQPjDf9crL6Z7BzsFJJ9ccdk5y6rc/5DGd7NhLxro9ORMjoEfDFXM2yXrj6PWxOEKAd+MB5sufzmjGxfiW/47HuPBwVZ8KGCuI4ORZoFjwJw/MeBg/sC5pJ1/2o4PoRslV5EtT3OlyQEaQDaNmCNG8dmxjGa3t14iaz6FroAqGrFHB5B9evvAD75lDkL8n0reIL72Abuv2A7IVZzLx7RjsHCxPCPKL7rs1vmgAPZT7XccXr5z1q2+AfXuapQuMfnqM9oFzsJaLcm0djXzz5Iwg243J7RySyd7Je/Lcof0THhotJoCxBN1BxgoWruwaar0YPblomzSw9tef5BxWiScbTzr6VtBh4tNQGqcGA8Z8wOuQrfFoFHP05PD5bYSaze2qGKDmynZPM7Jg/QLZtb90gL4QL56dwwohPe2fCJonG5S7dIGdg3Ovs0jP6gjjkYdoLrLy5bNYeQHm/Nuc7MVJHjgj8+jZccbOw1mBxnRl51yDXRcHP/IFZA/Gf4d38FDJJQIW/ApFl6ACMy7iCVZXezvf9dJBduNrvkmVRL6UTB+K+4VgDWBP4mtE0CsHmR3xl1CHiI8cHeYaLFvmGtZaI6JB/PzjJ10VEaQ3381hsRVXGJjT0xiYk0lnzR+kny28fIuOP5v2d20O8aW/+SI5se8I7Z0Qf7IgneiaSO7FIM/pSi/f8XptLwdk5Lq4ze3hB17tNyfF0RxkP5l8C/Atz51cevm6eYD4Tp2XpRTEcDIFeMCL8j8Gd/Knjmj4slvAFYUAHdTy4ZFo6AA0BRo+TQQd4Oo0r4A7JKNDBexk2+uOtf3sel2hM1+Mmt6eNQTpOCG6sWJfJL+NwFdjgM6+MWie7O6jkRdHvoH1c/WD5QPWFVhr82IGq2P3Q5cjzK/y2F9PB+bk6TPPv5qPPKTTufRWchcDHmM+7jxYHlicS0db+mI8C1eWSniYg+YEU9r+zkFBNZ4Btm7El2z88Cyg7LQPmqPT46CsyRakdQeCx+Ettgfwo+ED9LQ29+Fa46B5grl5rfs3K/qyxBzwAa2vne3Bx+IA9nZsD/IDNo8eH3vRzeMDq7dc4gnP/eTTj77zeCDI1p2eAC098tarY/O+EAFGvHKcXLEUoyYib+1MyOz5aTRonb71O1x689A6aB+ag+atQTzhCRenDQYED1NSkp8CsngzsM7eIbAPorF58pzzDnVvMbS+iEDHRxdAcwBGhyP5wCGi47cHOiTQofERrwZy0wK6NR4afT4DGmvObmQ+eRoWwx3m/6shvuUF5M3ZLY7d5/vdmXS20Tvn1iFoDwbt797aYv+kLYLkajIjv+SrWMjjN1o3B/JtjY7fG8tCduyvbMhWNvNjkR/N8UByxZOOpzBb+QKuLFJyKjMHMTvsFQzQFk+ITl8YtCdhrUF87cMS28ifvqwINrGADk2BpyS01hAayTz7oLVEO1TYU6w9BcJODYvHAfVa2mEVa/6TN0LQ/MQ7IEsPKH4Qja3laV8u0tkeKL/G/DTiF2u81ub5tnM2YPUCo2UzGTrtm+OXH+cnV6H8lXfnRNbFVp47M2O6Qfmgm418sw7zL+QPm8ZFvoU1m/nduIi2uuHCleEVTCDnQM6CaAvxko3XOj0nLXzK7spImuRX1HuQyVkn16E4OLrNYXywJoOAHLAmj7cDtae5PMEcDh56FQMe+oxo9vDUjNkL7tZBPizEby9/4dKys3DmM7RWQEYI4om2SK+91ZeteJq3b4zHXF6AvYo7uh9eA3HIL7DnnPHLMbR2Zs7GU6wcWHeW+NcPgG4NxRCyXUxh8qcevHLWm0r+Q/P27XX20H7waKMtAgbBCp8g8HU0TM/dGizdmA/R6YWKuYYzh906EgpBhwDp6hDojN7hdXMmRycgxw45NLevz2VB/kms/ZoO3eczic6Px+Dcu+MtB8UW4D31xxu/kT8QNCfT3sljDdqD8YP0RoPyhJ4/1uUuma0r87CnWueBl2znXHO1prN59ozkjflULe+4mB8nPVRX7Tdf/+O7iynawrVaptNIQgUgMGCOJzpcg62N8S+mN55kABrbrbNZYiUZKmy0+Okwr4GMDgq0B83J2ksHTEffVLLfQZKjU2HkFx/oqKlqtH7bHKKny97GshgdpB803zFdQbRymL1yGEaHyd/piZZMuUvevD02gFx4zfNU8nW8vMh/8eHPP/WFnyxd1t4++mGzPCaLDuQeHZC1jxcCawjoZAtk08gOZLc5OswPZ2Yfdoatz32oHtJ5IrvBlVFG2jyFMOd4giV8MSj4eJJtbL6YbvNTH6CrA2st2RAYs9mhOpjQAdkzQvx9ceFwrMngMVonAyTXV87lI7kaDD3f7Pv1or4Ntc731sZivQP0MGhdfNHoyU9+t790kPyJ+QTJhO2lh972QOeILsf+7Q7/28unPvWpCz/60Y9e/1unuX+HUc7Sa6y+Kub8sNd8z6FGyi822e5SNLdv3jkZq7mQ/l2vH831wPbBykJ70dhpfqK94MraGsDQOiOUX8wvG4pOUXsZTHljSTuxPfJLz4a55AXm+EPrbQZJtu5woHjwpQePAzK6cdtDC+gTB+CHPU8oheRnY/FDPuYLsHZgvToWC4zPiC9oHxRLIygnQXO6sg/SeY74zUP8pw/rVzzNw/iAtfzKoaeYfznYv7P4Uz/1Uxf69/E1nf/TTMP9vb/395596EMfuhqODPnyI1ebbyiHaOXZU41tZwvIF7da5As5PEZPGfJbz401lL07jC+eXUdrhOw1P3kWrlNL4CK8NCbAiHVjGAhWkEa4B9YcWMOg9dLSu3uhvbUBJN0hZIMffd1OBpDD76DwQ/N8xgvRi81avNkLyfXD6mKD1gG7ctm/YYgvXut4rItjfS3P6T4B7/KfPO3bC4NTZ+v0BWj5nK4Fe5rF51WN84/+0T+6/tk4a28JzqD/Qlde5dpTR/P92I/92NWA7aXfb9GYo61PzgJ0XumLD5Bvv5xqYrlMP2yOXm3v/NxbnnS0XsR37rcuDnBlEZFAGGP05jm7CpoXuBFm0H57wDpacwjIgNbZlVhJrACgeYdoP3Q49t1c6cDbXki2g2TPPrmeVMkpgp/92Z+98qCJNFxyZNC6paH/zKE/n4HFAqzZMHYo7Z98K0sGtC4X1hAvyEfrYgbJB/YW0lsO6EkvWnRxayJPr4985CPXf3nrP4GHXq3J+Id3/Kf43/AN3/DsW7/1W5+9733ve/ae97zn2Vve8pbrn1anm66awROtL0To51v28cHibb70fDcvb3JQfukyLq11/EuPP7o1Xmj+GMa7uHCd0BphwBjt3BNYuLB0WBCL9Ox6+cyBeSPaJhkCa4cCFYGmAfazz9/k8WgQDUFGM5GxB9KTrXzC5ymmiBRQjd1TkX58+eUwvF4qnmy3F6Df0RZ2nQ25i55/xdsI1iZa65Dfuw9OHigf8oIf+oLDvwz88Y9//Gowf9Hclx6axFPcfx3sf0T1/3X7r4Rf//rXXw32zne+89m73/3uq/n8z6c1ljw1orEp5xUpv9DOOIKdg+WvMcpdNdwcfRvonC+veVjuw+VZHbD8gueeaDlwp8ic4CI4afGtjmig9anTenmyK3GwpBodRo1WIaBJdIWUTjTzbSb7bNRwGmcPMh8lDZ0e/8yZggD0lS863M7AvoLrF4qLJ70gGjBfDFon15wv+QnYAPE0v4Nijy9d4jeW4+TRNZG/VPDap7l8sdHTy5PNnty5XPzVtEbzH797qvtCSPPwUT7MPenLDZA3jYZmLqfOSd4DOQbrWzEANOvzbMk17rwmMK8x+HDyR4fJwGRW9o4Prp8PjbaOZKz5OgApgOiN57z10lYHXKdOmjkZc8mrKJo7kG2uktxvbwu8w+ODfSNIFpqTd1D2NQvbnlwSqaD8NXBFs/5Betmxp8k8+WpI/jQuRgvyq7FYzjUol/ZCfoA7nWBtNrefXrHLgxFqMA0k9s985jPPPvaxj11fePhCyJcfeMnyg7zcfNVXfdX1tJL38poPchmNHLAnj3InXxWt/fKLJxvo1ulsBPjxAbw1wfLSt+e2SJZtMtYnX2tj2B7ZMFq86+NzT7QwgxhTYB6eiu/mJ8+rYbbNswH2pgIOC1rDnkaapVsYnR466AJ4rMkCevErgGzkMz9AedA8AH8NiCcZxYLmNdOt7tCKo1iM7PAtn04oxmIL2YHkg/SG8WULrI54QnGvXrH5MkNz9Y2hBvMf//XkgjWh+L/+67/+2Xvf+97rNdGaTvkpT5oSb7bQ2eYflCeoUT3V6MDTxQU6x5CedDS2J45yREey9N6hfbi0zvwLwfxIV+cAXvFEgxgymlDrFMVvTGFBpyfEf/LufsEZs5mtiqCkgtYVCdiicbB4jfSC9TE+TacQal724nH49sg7NDQ8+axA0IzkFAr0GrW28nOLwzoeaxi0TsYYtF79bMP8sp8saC5nQTqNYjL2mujV8NOf/vTVZL4EAmQ1Dh62NNg3fdM3Pfuar/maK+ZkvVL63EZOwxo9BWs2/lZLcgrliw5vA3LuXOwXG55iAeZh0NwoFigX2UKnrxyF7ZtvDqPt3Lg8YTVb3a6+hWtlA8OdMwTC+Np7yvn41pGwm+xuLyRLPyhR0EFIpLGm2iLCi87fEt/YPn66FBle6/SQU1T8M3pK1UzWxUxWjD53WCsYr04KA+8Cm4CseXFEB/nZPGy9vAEd9vhunv54d8ymGI0hWQ3iyw0N5nOY5ugVuq/sPZ3Yet3rXnc94cUvH2T9rMzPz7xm+iz3iU984vrS5Md//Mevz3eajh1QHcmTczZqNJ/x2MxHPHjlGA8onuJcQCNjJF/9QednBNnfGjWin3vRlm9HuHJbu2h8Cb7ipQ/5f/pd73rXVVAdiFHAYAOS6OeEX1JoneE12hjP3Zwcx07HWztMBwTRA35UfPjchNYOvqeQD+Nu2goLL54O0t4ePuizglGB2fcfvZPhS7/rGD8/NRoZxecVyue5kg3EC8mUS3JooDEf8zN6cSYb7JruZNAbgdGemOMx9hTSBH4epjnQFL3Y5dJaPvmbDXFqSrLy8/3f//2XrEbztb8n4s/8zM9czUoH++SdEdQ0LqUuJP5A8WtmWH75Ief22WK/+PJJns2Nnd0b3vCG60cJ6UEPAXpnYP4U0mtc3js5NMA/a3Lf933fdz3h7T3XaDFCsApBdNDepeRlZ0LrxZNWIQrW3Fjg8ZtLbs0SoPND0iFeOtC2qTSa5nBY+FaX/YoocOspMvJGhWT0bSM+RUMHGh380GTJuemhPNorF/kLis0aHZgXB6iYdr46GkHz9k++ndO1KCavdgpZMQD+eXrJjdwVm1xqIPyeWv2alV+x0mD+owk6NAl5uZJHSA9a30zSp8nY4m954qP8ssE/Z+rsPDHxock73vLYWA3h02idRcAeHpgM3vXBGFqf+Bh99Z3r7/3e731otOt022wOK/7WkKOSn9P2W8d/8pgL9JRDc8OdfNnkHNgiAc0rJMl3mA4VmDswQJe48NFnD7CDRia9xcgPRWhfIykSYETD35Ovp5lCdNOTBfSAYmhcv80rxtb58hhf+7t3ju0HSzfSIw+aCRafPIlb7pyLC0Y8muhHf/RHL/Q6+JM/+ZMPn8HI0+/zlRz4Txs90cVPn/yzZ47W2VcLnblRLuWQDlAM5DUwHrTOdFF+s2kOzbNjr/3W5nRZ51frHZOF5/oO46F/4VpFPAVgTpufTsB40QQWWi9fPPGtLfqbJ4PGtkSfhYOmwSowc7ToPb3s0YEvRHdT0h/ic+DmRgfLF7evoqyZ6eI70GzWeBSIQksHtEcuH9BAPtOXzwANWjfC/EYzRremF6A3b7TfCOWEXLGg8alci0ssPZF9tvru7/7uZz/8wz98zX2b6jX6bW9727M3v/nNz775m7/5mTchr2jiptvrIr2aFMiRL0y8Uvv6nw28sFro/PnhqedncHylh6+Av/b5h25eTnekzxwPLBfVVrG2zja+EDS3F+Jtf+Hk3fXyX6+OfkVGoaxz5mCZVwHkeM4aC8RYw5yIT8JXxhim38H1yibR0fnlAOznEzl0tApTPEay+Okyh8Ark6YjqyD69kuTacSv/MqvvG52sr1+bpHgNVZMCgRNPICcOf/AjnylDxjzPf+NGw+wDtKxeszRVx60jiZ+c6OClod0yTHaD/zAD1xfZIgLrzj7fConnj5+MP2d3/mdz37P7/k9z97xjndcTShmeYB+/epNb3rT9QWRtddGcuQ7c/52rvzkg3PyukUXX5y/OT+cqf3qBwJnQqe182ATsgHwi2HrK/t3uLof2zvpi+X+7/ydv3M9+dGeazSEoHnCUDLWyDrDcSggaM8oAbB5AS8uLb2S2zu/JGeLD4qkYMhIJB6Nk2/5QE+H5pDI44uGp1cfe3g0jMLBZ9/Bs+MQ2e71hl1PAIeqUdnlBz35mX3+aliFQ6+44F4A0LpYrMnRa+SLsTlo75yzb92czvzIJ7b4Qxcer4m+3PBztG/8xm+8vtQAf+AP/IFnf/yP//ErfjnzK1WeWprNk8q5+oJEM2mqfjum3xbRYPLjTPasQfHwL9TUPpsBeWCTv5q0uNmkw7oaEy8eZ8e3asA54cUjzmQAmUV70Bw0D0EjnbsXAuPf/tt/+/lG+5Zv+ZbnnmiNJ5agAsxhWBJhN0h78ZsbrVcuXSFQZJzssxGQJFjBgJKI3yEBBe2A+YzPYVVsHSSaIlMEfbboa200t2SfX/Ch09ETjU377KOxhc+XKPTw3agAFaz/w8sXB0YF7Tfe7ZsrKsVEhm81I1/lCBRLGESXN/OlgXJGV80sf0Z2jGz53OVnZ/zzqsdvzfHH/tgfu34p+AMf+MD1u46K2O8waiL7UMzsy4s6kj/7Gs5c00F54hf/8jUgz8d8898w4eV7uZDz6mVriq7OhA1vI73S5pe9cokG8mORzTDawvI+Bu3fNpqbOQcyAhKC9s+1IGCNo/CawwJsHkajI6QTSK7bViEaowN7NRoZ9uyj5RMZNxu/OjyHpTEUtGI24tGQbmVFBxWOz1yalT662OQrfZrSqDnw88Me3pqGjKegtbHG4wN+tum3xyf+KVZ+eYpHL0b6gTWQP/baNw/4CoPWZ5Oxwx/IN192yAd8//vff/nj1RHi+eAHP/js27/926/m4Q+dmoc+OeZDey4lftWI1UR+8h/w/0S5YU/u0i2fRvty38UG2YHo9LLlaeZCyA97eONZueYgnWFwzu/Wi9H/1t/6W883mgRqNIHEFKLtmqM52dwokbC58cSlNy/Y6NaS6qAVXIcYSD4E+CWWj2h0KiJFIKmwg9IURmBuT1F5BXLrutHdxoqFDzUAeQdLN342NZPmsdak5BQIu2iayBripaeG7bUIssFfsZpHV2jsFivbciBOdCNdcM8FlKt48DcmyyYb+eLnX/60xZ4m+92/+3dfvPJEFq+8uID4Iz5N1us2mhwBfvDXWi6gtZyewF6Yj3JmdBHwj+32+e2sQM1jnY3OyROtz4R40PAbg/K28y8EF07aNtoVvUBAjBU8NA852pzjilxwRusQ38pHa3/5o0cr8RIusfmE5kDRKpgQZKd5dGO+2Ccb3eWieNye/HADOjQ2oIPmVyhWejQGeU9DSC+b9JHje4UMFIlGsnZ5SL41X3qyaXR+WNNBRtzpwa9ZywE0hxV7sZV3I7BfPipY/PSxLQfi8/TypywK1Ouip7dXSLa7UPD48sOvYckZOTljq7V8yCUsN/kEAX8W10cybIkf0FMTyS1deOkSM3771njI4RFjOsrFi0JyjcA8fArueB6sn0qMZ4IEIShoHj1a9OU793aefLrZYlcSFcE2hXnF5FAgIJsMWq9zigmdztAh2QPWvsTAr7gdlAKz75Znn590GBUQ8NmKHk9Cn+v4oxnYU5DA65L9/bbNGr3PK+m034d3f8elkN3IaIpNkbEHeyqzJ9biA82N5dNYruyVYz7TQx/9PnPJAbtkNB89vsr3zaHR35OZaz5NB8RxngP9Gk/Me8brXyDXi+un3MoPfms62duaaL9cZKexelkb6GDH5gE+8BRPtMUg+YXr1dFfwTpUQGAZUyABYWt70Upo85qpwy34Uy5EkzDJUQBezSpcYE8x12j0STREo8Nck2RTYVdUioe8glKoPvArBje22B2kovdU4Qse+ujpRvVkwa/Q/Azp7W9/+6VHoWoQf/SoWO0rFB/IrT0xNJ2nH538EyceeYJyXg6LDfAF2of8AfHETyc95njor9CAnAHrPgfKC//8cwRdBGTYo88Tms/2siuHdNk30ocfoPFJvszlLCgOevLFmA6xNQfs+GJGDaCLLTtiNC8HYGN3STlLPHwox+2jl0vz1gvRT3wRSO/3fM/3PP8Z7du+7dseGg1gBClP0AhzWDJbh2hLX7nFdEAgmYKVaM2i0dzi1g7fnuTvQWsO+tHok0yyHYoDx6tpoEMzKi4F5CB7kin6nhZGOuyx4yZVnC4ATx5ffWsqOviPF7AJ+ctuo+b2K0xi0Mh+u8KvMv3gD/7g9U8C+Lc0+sNKv3foW0px4K9Yi48+xcWu/fK7uY9mxJ8v1nLKH0iPc/e3ZuRcEJ5Y8kZfOScLnQW+gN7soNNnLCft5Q+gk1y+Q3O6o/PRvN9A4UPNm95GwNfywwcXg8+Uzi2Z8gPyC+TD4rlvzS9ont2VuUONpo7NL4lr8pIwZzLSuPPAvOBCPKtDUOHJ99garwNV0Aq+wxUgQLPOPqiA6LFvHn/zEHiy+HyhkO07DKi5FJ/Cdsia2A3vgB20w9eMGsxBak50do2Q/YpYE9dQfunWU+ODH/zg9ftvaJ6MdNLjyaGBPQHFxTZ/FVp/0dy3hHyuKIPisweM9LSO19hcrt36bH3Hd3zHM5ct+z0hxCO3QIz0k6UzvRV2Iz765LNGCEGynR3oXBayR5eYgZrIDnr66UIzovWtcLWy+ot/81dcd1CcwLw4Foop3rt4wINkDCWG4zUJJcb2VvnZSBAtp5I7edJjvvwSqrCMEuLAG0EHauQzeroULkCT7BLdSMa3a35G4zVQ4/RZwhccZDz1epVET68GdIj9fIY+aK8noWbguycSG3/1r/7VZ3/xL/7FZ3/37/7dq8H8HK1XWMAO+0afzxS819AazxcTPh9pbDT+gGyLK9QUUNHYM5bfcssuHrQa3GttTzJAdvWQcRZo2UKnE8qFCwnSVwPkH+CHNayo88leI1ojoFte+RDS72xqtuIz0o/mnNnJZ2APrN18ar4+wKC9pZ88wDr92QsuagwJp6AAjM2hA4cb5NKWbjz3Fu1nS2IUrYOVqA5bsiQcD5pkwuT4iw/SWTGhZ4d9xayRNIQnFSSvOdhtvTp7ZbTnCdAeG7BCIE+P1zB/HvFd3/Vdl98+u3n9oYcPisfvCf6RP/JHrq/RNa7mZ8M3fX/wD/7B6+dVbNFNxiuqJ6nfSNeU+VZ+2Nfw/EG7g82nfPBDsYLiKWcB3tbiTkYuttjjwd9IFxnArnVgPwTkQzLoxj4zgmKkSyPZ4w8+uDrkPT2dD7AuB43/r+DzmXgJ1tEwKBjYYTSH20TLd9J2745HQiRGEgLJkDhjdh1wPkYH+MjSQ6e5g7KvWDWDJ4rb3E2Ox+F5j/Z00wwKhw1yXv88mcTntna4dNkjp2khnZ5ifj/wL/2lv/Tsh37oh67G4ZvPZH2j6GvxP/SH/tCzP/kn/+TVVHRCe75YUcC+2fMZUPPxo7/xEpMm4zcZvudLOQqjxSMP5SY6W2j0QnydiblRQStmI5SHnhjo23ho9qqFUx+7YMf8AXjhytHlNVSuQbGRs+c8nCXekD48YsKPVozoYG2dkD9fLJy6r0bLcMYL9o4GOA+szdtfvpV9bL5rAUKN1rx9iW3eDdohGdElUWKTjQ8qBHz9XKvDYUsjWTtMMg6PPk8hzeOAfLDeA6W/w9Sc9GoyTzFympZNhfin/tSfevZH/+gfffgFW6j5/syf+TPXZzd89PclRAWskGpQc5/xNLQ5fgUupvLAHzHwyVrcoL1yU046QzQ6rMVdjtnRPOyI3VhjhfkJ6Ux+5/RnZ+f28oF9PhpBcvb5Lb98AsVptM+3/EjO3L7LTj7Sbx5a0w3yCx+0Lk/ha4E7mYcnWhATp5uvUMk590P70D5sXnJXbudAkOZ4Q4BGT4cv6e1305I1gorVXvp8QYFHQdOF7guJPagOSCNoIHL4FJUmyC49DsuBa1af7/w5iX1PHV9i2P8Tf+JPXF//axZoDz+53/t7f+/1symfyeTBobu9vX76sxRPU01bc+HjC7AWG4hmpKNmM+cnBMYKCy+MtkVHbznF0/kZy1v0GrJzhdb2QHKN5OJju/xGN6LhTY4+OeOfffGRLUa0zs8cpDs+Y7qtxXuC/UW8d9D+a4XnGq1gg5SiF3zrxvg2OcAY38pAYCwYo6QZ8WVnedFA+3glvblkSqB9BYtWAXm902ieNA4Er9dFc7yS70mGz2csvOSNbCu8bUjQYdr3VFR0msoXFz5L/eE//IcvvdCrnm862eCzL0U82TQe3TW8JtOk7Fr7eRA5/wipV196ALtArOVVnHSXR/5VYJuzfDauvGKuCCH+ivfk7SzSlX7z9uVjafEZQbSXlFxrvtY4IXk/iiHHPzQ+1myN9nsboAPtPKd8hSCa/cdg95N7Ebjjfa7R1iHOl5gwaI03vtcC6Tp1djAL0Qs6HmtzhWouwbD9DsTnMoXrSebJhNcrhWJSDA6QDvyeZOkhCxW8ZtQkDpMOh1jMZOh661vfer3S2fMZS8PR6enkZ2O+3FAIHTxddKP3IwO+2kPXhPThK5Z8owN2PgEaX/DHh2eLPll2ymPzmizobIvXmK4wnubR6bM+x/jA5cfL48P6JV+AEZ9zQ3dOgJ4uBXT+xuucnKVc2Qd4ysVT0H6+bV5eFPA+xn9ppTzE2G2QoXD5wB1t5yCHFwvKnI5NgqRs8ta+JPLNnrECUKCeRiUVoGkor4CKWaPY95rnsB1KvuLTEJ5y5NDoMyp2dhVYtyYkD/1czhcUPcn8xoiv5H1lXoNWwJrRK6SnlLm/6/KtJN6KU0zmRmtFw2++WOczMG5Oi5+tCg0kQz7ewJoMPOcwuRM3//zN53SiLw8ZY7C06Nlc/+TefpeHeT7aC8jxoS+K5ACU+ztbaNkzjw7iPekBensBnsWFyypDbVDeGqZwEZRc62StTzhlT2Srgy2ZEsMPI50lR4EDzYBXovHTUUIVt4ZAd/NpAnbMfblh7pbUOHg0ogaDfPA0oYcNhwb78qFmw1PDeaXzDSL0raKnGVpPQoXGT36gsU1nsQI+4OmJG4iLPDrkO6iJKoRkmofiMMoh/RU+vmyD5Mpl8sBon60wHeHSYXUB0xFGw9/8BH7QAeWbTjG7dMSB7nJ0RuZBMZFxVtWWPBghH/I339ff9elcL7SXn+lbXLgq+Ay6hJzM0dZRcMqDEruQ7PJKRqNkSh6oMCRJUgF9kq1p8NNlDvEJmFxF7PWr5NKrWD1hvEpqLN9m+UzUt5H2e+2AmqJXxp5gNbKmsQc1olGDaShzfHwBDp2PHQobfGID4JcTPMCedfEY0cqdWIH8oAEjvl2TgTUP2QoPlHsQD7RfDvDbWx0gO7s2D7MPWhuzER+ItsCe+OQ6P43yAfGrCzrKg/idc3nkO0TDK67HbK/99oJdx7dy0dIbLlzZinEB45m8E+5oT8GdrtaS6GCN2VWQNZmEo5WsispcMs01lrW5Qu+wSry5V8J+M8Q3e/RrFI2jIcj63OVppdHs9fRikw7zmq2nnjle877kSB85wB+Y/+bFUdOZk0u+IipnYi1nnZs5ngC9PISALvbw0xPED/hkb5usMd+heX5AkA4QH9z9+M3zq/31tXnn0GXIbpePfTVCfvPkvDWXOd+tXa75HzQ3wo3v1eBFeBb+7+kcUKCcDU9aawjWeHxGSemAQUEtdriAjMTVVBW5OT5zRVgSJVVx43MImgCdDgl2GGR8Ve4rc5/T/LkLOfw1E//wQjo0jaeceTFAMuhGmL/2zOniXw2TnD2wvABfcjWwefHwCz+QA2sjmeZy2D4M7NewdFhDQCb+dMhpOp0HbK/xlIMgf8J8zt4CmeI3bj6M9jtrXxZZe8UuFrmx7wzt8YmcfAEXqP32rJ0rWjEEeOA5/1LC5yN7CSSDo1Agd8ZyokSW8IIsoe1D9BOWnrwDNZZEa41mraglyDoe8hKHrwKlS6I1mQNxMGTY8xW6r8/RNFtN4LUt/9Hw4EfTvGgQFBNQAOkIawz+GenEV8FtMZnXxOTY0vDGZPCKKZlybw35iBY9vFuzQSa96HJangEaqEBheY/HOoineeP6la/ZXGx/IT32+SqPfhTi8lm/tk6c98rYUxsu2XzXkNb5jw/kV3qbg0a0xWDnJ5x7z0WZ4i8GTmfuIJ4OwMF0kBJgLnn2JLODkzz7ClyCJU/iNAu6okWn26tG8xqMzm5FevvMRV7R22fb4aL1pKtp1m/2YDTogGGAj9/QHNpXNJBNaF7DVUB8NM8W6HyM7DXfEZiLXd7wJU8ntJa38mqEYPVCfIv4GpMPmqcDxJ9M9k5YGVDuyDkjOQJ9lKADHY9zs3ZO1uKTTxdqTzJYDZSb8gLYX9/Mwzt/Xys8NFoKoXmGgXnr5hUOBOTQg3iSWWidTXwSGkhICQZ4JAdN8ZErgZKlWPHigT5jSTrwikgffq+OZCtkh+GHwuzzyT4bnioaDR0vG/ZDOiAobjxo5nykvycWXRULmn3+hXiN7NFHV00G6UUH+docrxHEY3RhlFP77LJD78bRPiC3cYFs0SXf9hdBcsYw/cZ0WdMTb/tB+zAZvskdvmKqUYqlizmgR6x4Xbj2XMohOhl8C9b5tHu7zt9ydgfpWbi4TyW/0CBJJbIC5TiaLys0BV8kEpQYPArSWsLwawo0OiTVt4kKWnNpMrq8MvRhWuHXZH5TRCOR9cUInd2c9nvCBOs3MN+c8Q+SYcNeTVpDGBfxoncG1uZk0tfcmA/rR0BfQIc85SPkU3bThw/iy4dAzqMvf2B++hQt+qnzRYEsHXx1Fr7RBV249DovX5TwEzpnMZLVXOR6mtkn2wWdf8D8DtjYeB7jexF4aMuUPKVsjd0lcGlnkpNd/fbjc5Cg1wDJxGusYDSUxHcrSaTGMPcZzBPJ08N+aw1H1gFoSoVs9ENsv97DtibU4HTxgw+9lmzDFI81nQB/CIrPGC6ca7C89NQIgM3oJx8wjz+fQL7KTTrwiaeL6UTy0PwEtOzmS2AeBvTsOlhemK3lXVq29s2imDQMcKbs1XDAmLyzJdOro2bTdHdxgmK98w2c6xPsnzzXab2aYPBa+CBHT2c3uNUnUSUSSgxsTzIlWxNJlrXGsJZA6FtCyfdU882ieYVDFvZVvN/OYM8t2Nf5dDogdDIdMh0wn/Ckt3h2ntxZkGBp5iBbxR89XphukK30JB9fvvaKtb52cTS2H1aseBfkJv9O2DhC9rPb3jnaB3Tme9ga0O98gnwg7/x7y+lsyBmdP1mjPaPzVivk1j+wceQTyM8vBj6v+UsI62CHH5hvYOYlCK/D70mCV4D2zGsEtxG6efrcWD6DKCyvi34DhByZPhNJrKeYuT9ZMWrGvmWE5GG2Qf5Zwy3EYmkvGvmNPf2LNXP8xvRA8umAoDVZ8yD5+MyBdfqSA/IcpgdPsUJ5MKYzf4D483HtohUHIJ8vwHyRXD7e7UfXSN5U4q/h8bABmruE29NYzZ2/mLy98F/DGdsH5sGdT18MPNdoGVqD4ClD6Pj3IKI1pq81iJ6chvCk8VrXK5zEwRrQXLKsvTZKhldEeiTSD6J904TeD47JAa+J5PweokPD1z/+wpam7CCMaPytqEo8H9gz7n6Q3MZeY1QgrTU7n4wQvXk6kkkvaDwhOl4y/BJLNLrYC61BseA3kkFTqD0NxIluny686OHmAJzr9ZlvAC16tkGx4ou3NxF7gTl09vzTZEa4PpprLDqdrzkZF7QRHySXT/nTmB/B+nYH595zjbaQosWcWEAvYHMQT+vHINkKzOj28rU6Oj3oigJUNBVIiZFMTyeI5tegyGheNjzJ/JMBfnlXk/UDawlnR9PSje61kw46t8iMbHV45mec7TdCe8Vp5Hv+r47yANCSowOk4w7Sk658aM3/fKmR5Ye+dOJNLrvk5MhbRMUsdnuw3NSYC/mbH/mykM0wWjbM6YHO0qVZntDiZ58ffMzXwD4Z+jae+GvO7Od39oEx/ELh0UYDBRMUdJDhaHf8YJ00nkE4dA0G3VqawROmpCZTgXeoGgHdLdUroK/ryTsYtyD0jVUH5fOYJ18+1Ix0wPSx4QAdRIeBn0/2yJgb0fOxEZjHF8aD3uWCDrIBAR77y9NoD6SPT+WlPWC/PXz5kd4wmezzBcpBN798V9TpXdvJ5tOOyw+ztTxBND6tv+XDuIg/XzWR80Ijl1768IijcxbPnm+8xvQCfq+eRXwgXwJ7C69oNM6BFH0pgbOrM0e7ZftMpSFgrzf4JDFZgQP6JMstBf2piqchuXRoNA3sKec1UUNKNn1iZde3k+lgz4flXkEXs7v2+bR71vlJf/vBFjWw30Haq6iad4Ah/s4oQGs/W0bFY0+sMJ4a3ChX5ZkMxGNtTL4nhXzXcJCNAG9jc5DO6O1lz7o53Pjyo8t485IeNGDNJ+dY45QDkK9GMdCBh0xnEG/Q2th+SP5F4YroTgDtpJ+01ms8iO/c27E53hLp8DWHxvAzEnuSsIdaskuWG9ffhe2TTMNZkzNqnJKO5hbT2OQVER3m5L1K+j/C+icJ2K+48sHafJNPHrQOg/aNzYFYIF3oyZi3Zy438bQP1oZ9gJZvwFwcdNVoci7e1gCPuOhGS16TKeBttnTKpdyUq3RAc9BI3+6tn63Z3tj44Uwgn/NXLKAxPXSvf+mm08hPtPNszdMBGoH53TrauT7h8rBNjuz8i4EXkcdTwsyNDh56hTTatycBEohHg1ijS5BG6pXRQRg9zfDQgy/Zkumw6FE86JrNSA74DKfZ8JcT+/RY0xGYxxeiQfP8Nw/QTtgGMMcTsg1cRsFpJxpIpnj5ne/oW7TyTK+1/fjKvTkdZ0E22o+H7ElfiIYHL32rM71sZ79Y+FweQPzR8K9eYL94AF3OPDuwPSN6PqY/iA5bx98anHLg/3r9MpyKvxAQzB2UsID+bNiTKMXv0BW8xFZY/JIUCcQDvOLR5zc8KhR7RmuFQY8bFx8daGzhcwBofQHCPtlubf/SsCdhv7rFthFvh0S+uBpDa/x4jPgX8FRQyZiD1Q8BfQAfQI+vPGbHCOkz4tVU2RGnBitf5R1PevAlwza9jRDkn7W8VNQwmrG1HG7DQvLJgfLINrQWB3+XTjawb02P83aG1vliv/zZh+UaPd/zJ19OSF9A1poMeEzuoepTIJAgx4J4gnMfdCiBebjr+GCHBQRfo3T4QBJArxD44vU1Pl6Y//Q5GGOH6IDJ0Iku2Z5kvm3kh8Ozh4ceX5r8xE/8xMPBkNnDs1YwRlBu1gcQPxuguCHeEA99HTr5Dj96PoDlywYw0ldBlkt8m9/NW7wQz+rgJzto2UY7beZHTZT/IVr+No8ekk+3EeAvR2j8g2TRgtUD8EI8yZiT81HBCKIXQ3Gs7iCdAA+I1hrEE7xS0/+PgGObEIXgaeSzlrl9h+7zl8IARt8o+ixH1gED81DwIR10mys2/H3pgd4rlBHa99/J1pAVUAmlr4SuncCedQd3wklLV0COvezCbFYQQXkrbnMxNsJeF+UtfjlGk1uxowG6XUyKsfn6V6xhvhqtzckuT/vpjBfymQ/GYsxOkDyexnhD/PaSB6ubjnzpzaWGy5/XAvjDp+Ch0XJ04VwvPLW3kAPpby0oYI1e0kBFoNjdukbF0atksmj7GUwzVDTWEmlMd4mucPF7LcRjn36QPTT/gpVXSzIOhe0OZA8N4G+9fNAcPUQL2ufH8sD02IP8WH3G8gX5EAI0cZcXoz002D5a8nSy47OMb2mLP2A/Pgiyhy9fi6HctZff5SBfTixOY3NgTkcXBtvtowNjMdGVf9Hw8inMJ2NzvoLsRbd+CrK18P/0icYBQS9EM4bWkqHgfbGxrziaB9j3JAMO0FNHIshCn980ksRYS44Rn4ayVkjJaGAIFCS7Rjo81djoMBs38TBovvRzvgeXrtbN79ZbFPTwsWLbXBZzNtFAa2Ce/faBApMn/xS5f4G5f9RI3ugFfEj/Yvbp3Iazly1zPGszmnjMAV3FR4+zt5de9eDiyCdgH6KRg+b48iP/rJ2vOqAvn521PZDP5Tj9aI9BMgu3jVYCKHwK8MXbPEeC1QUFwIl4zv0OCuJT/F4XveL0NJMMfAVUcnqtdCAaLRto9iSVXkmT3BrR2oHSGVqzCXwp4p3+7lZe7HDyHdIVDaDx61zDdMBs7Bhak0+3MX3m4imXdPI53/MfohnTE6/c9ets9Ho9d9nhk5cg3430NF+60R69mpdNNGtQo9QQwH6ATt5ZkeFPPjsfo3yQCZOzh58NNcAfa1iD5TvfkremMzAvLrB2Tkj/CVdkbT4m/CKQ8nQtArpL/GmndYkJrR2sJ1u3KbrDkkh0CXIA+Dzh2PCTf3wS3Otm9s0l0itRehyCEWabrF/dYsPP02AJLwZ6dm0OF5YeLj+dFUrz7CyiVWjyUCFlA+b/ypxYwVf0aHjJd0F1w3uq+x1ReZWj7LGRTbJ4y8Xaao8dhW2+vjqL8u78yj072aKnmNCyQZZPfBULevI1ljm9Llk2lsfF6Usw8vTJy/pnDQF+su3BaHcQz8IVTUTCXyxkZDEwZ6NErr32JKbkhxKHDqwdHF6JICdBmkLCNJCbGH1/CdWeOV01p7kDSz/d+LIJNRp7/qnwPRBzNsI9iOZ8jAZaJxufNRtLa26PPXPy5Y6P5SQecRn5WDOZt8/G+r90vApPAeIRt9+06bdtagrAF7D+Gk8bMPvQHhq/XYBs1DB0l590itMIe220Bz3NjBq4uIEzs0c3oFsdpNM+WxpMvP1WED/5x0/Al/KTD3ue4WNw7n++Cl+CAgAYcmwh4RNPB06w/xicMngrJtja4SwvWkl2aIrBvJ+JuY2tJdUIHSo5SUWX9Gx00IB8e3Sj+1LEkxLQ1YGAcoW2Y3uNJw/sINnCA9GgfevGAC9/K1DxeBKJ3V8zdFMbe0Ip1F6X+F9hoRvJajJ7itRTrAaTC7bKCdg48s2Ixvd0Q3Ry9LkQ5bQ3DefaJXcHZPna75/Sj58sWs1RDvlJtxGqA0CHfXKArHhdzF0wm3Pg3Ks//hU7wGOP3cWVXXiQPAWCO9pTgI+xDL5W2KA2UHq7jdAkxMiOW1cBSZpk4TOWGGPN5WAUnMNy0zmIbAZ0o9GDT+G5+bw+Ar50KHdY7OUtJNPYHJKJlnwYTz7yxzxUOPwzF6Mc+MVpjSMnNRyavV6ZjO13q2sy+msyess5/Z2FETQC9PWXL5qMLb7ESz99XRLkQLKNC3Q5t/R2ZnyWL+dpH43PzpV+a6+NybMH6RGrZis/fO0CohMPNOd7SGdnFE+ItvSF/9uiB2wSH4OMr+KciQ4YT9/pAFgdUDIcyN6gaJLotcAeGaMP6pJT0tEVFFm62C55QDLp7EbFZySHN9+hPaODI9d/+E7XeSA1SQUBQXN6WgO84TbYju1Zw/yC6SxXik8u/NNsfh2t1+b0KMaeeBrLqPm8ZnvqiY8uTUZWfuS73NBlv3lnEC078kIXnf7XHN9aooNk+N7FYp6sGEE24qPLiM4nzaMxyESnmy/OzCWh0VzA6gVve/TyD3bpunR6wqU3n41iCjs/YzQ+5P+e3cKjjUZRSh+DFD8F6bnTJUGAjvY7RImBwIgG7ZMjYy3xEkReshSTuT18EiGhJUxSJNxBGPHST689o730g3T5Jk6RBvjPJNNnjW4O22sfguZw9bTPZshHI8AD+CoGzaAxNJtvBzWLZlNomsZ+uWNH4YoD9vpFf69cdOKH5Sb76ztdW2iAb/T5XVH/cYh/MsJ/Z+VvAXsVZQekL9mFcki/y0Bj4BcbfzSENXtqQOz81ljssIG3nIqrS6MmQ9dobMhJT7iekMnyw9icz63xhEvDU67A1WgIHGh+MtkLT8BH+crcye+6/dUreenvUNHoduCSKVloEopHUXnsS6AGk0BJS/YsAECOPjo6PLz8icdevpjbI6MwFRC96d4k74GEwFjyzZNdPSCb0cUCtuDjoQtYtw/lqIZRdG5/RRhNrsRknqw9fP3FRPz22DRmNx+KjU2+FI/z8MvYPtO+//3vv/6LYDqdH51GPsD0FktjkB0NQDcZfvb2wnYxdma+JS1OI3/osMaPx7lDdGMNptmgi7sGxMNW2NkUf2e6iHbG8tBoJ36x8KXUIUEORTIdlrViKGCJcsMBySG3QQOygCy0h+YAKiZ084oJsocXOJTPfvazly16IRo/stOBkEFvHr11mJw533ffnrF9kF3Av+brNzCKqYLzZKvIK3gXFVSongJy2msjPihH6U6/sSbhr3x4Xddgn/70p69XRv95oqLXCMkUTz5vLDuPF8qvpws/+GauedgFfGWDjIZ2WbAhPiPf+IoHWNdE5TtajWbdOazvAZo1HiO+O1x4rtGCnd/ByX8H8TzFd+4tf8EUKJDsiscoKUaNJjB81hpGkQNzehyY0ToeBQjJZQcdWEP70YyeaOzma9jBGJvzoWaLFkaz78CN7dFX/MXO53xCs4fXGhjLTxfINgsUi8KsoTSZAoQ1Yjz42eEjyDfIX/lUkF7r/OjD/7ENNZnG9aqYDlh85QvsPDvFCPF70njC0CGWvtDhg/NgS8z0+IzKprUY8eITU3nhr2YFNZo1O2Lq6WYO8fCDP/mafwCtvCzSGz/4/Cm+ChBYXNoCAyfdPHrrnAwKIlx+CZYkSYXWbi4JcNBA4QvMQYDVjz+d6CUdVlSQbrSAXDQjMHcoDqtDKqnWkC3rbbD4iuukG/OxOfniYL95I//MWwNy1vbaJ1sc8rPNpLkUqkZD64lHFihMUCxGRa6AfV793Oc+94DW/hFasm94wxsu/eubeUUL6CoX5SZ+tOjOmB8uBUCu3PAf4jVqNDLiMfKHDfL46fI0LE/k+MsvNaTBnC8+aM5WZ7u+mtNjDoz5Zg8uPNpoKaTsxOh3cEdPLmidnmwBCWgOzmKvEAQuoZJRgygWScUr0IoMLzvkrI1koOJySPSmu4K0b20/n+j1+YPOBfpLNF58xQXb52/rDmT5ID55gAAtIMd2dkBxATLWyZuLBfbkguZQrOUJkqGbHN/MFaEfbXg17JtEc99cegIoXp+RyfeZjB6+Lgb8phutebHEZ02v37OUMzxsaXRNYO188LOlyTzF0NWANw/8fBKLONBckubk0KG5V0fxZAtPzWU/2tJDvuIJo5sHV6MtwXwFS8QKcm4TGaDBwJ71BtT+8hrtsbX2zGsiPBU+urVbU9CKBdireOzjo5cu0Jwe+w6hpiJnpGOLzmjP4eVPB2YfguKjv8PYm9FrCHqxQfrAY77SWfyr194WweqB5IAxbE0frMHwR1tdvvjxraG/x4N+sdrvfHpy+bGAfY3g0pEL8n604JtOFx49p332QDbKQXGUHzT50ryanDxauQSdEZrRH/+SN9dgzii7dPJXI2kouvm4+ZNPceDDw07nlr8g/+DKm1cLd3B50kE/BRS+COZEaw6E7W8Czj3JMlY06GjJoElKhQE1gX1zt1pNgbcbyn5YYTmU5m55e2St48PjUDQbYMNBKjB+Rcse2BiKKbQuZtBcTPbNjexCQD862WwVi3X7C2TXfnbZAcmLkXy2vRZ6amkur4QazGcwTxZxazIFC+VAYfoipd+J9Cqa7+UjH9fX/GF399ZPjeb8nEn7dFqDGq/fNiEjJr56DaQLoPsZKF40cvjKD1/R8IlHDshb54uRfXLAGpLP5xA/xB98XuqAnDihRMACD6Mt7Do+wJnmxtbpjh7wpQABHsmpKWoUNAm3BhsHfeatOzwjGbz7GmVt32i/D9356lXKzZfPqz9foy1Yr36ydKIZgSdrxYQHpDN7YPWThfmSbpCO6BoGejp5amkmr4JeCf/hP/yHzz7zmc9cTaSZPFEUnqLvFVHRaj76v/qrv/r6mZ2LqLcJyP/1uUbOBxgNWAdobLJPR+fZSA4qZrnS4GQ8ffohPCDLNp81n7l8GTWWcwV0dZZ9TkPrLYRv9EPrfAZkYPE033jAlYk2Elrm8DG+xZx5Ck/+lWvebSAp2cuHAgfoNZsRoilafODUZXQARgVhDsmSowvGh2avJxp9fHTzKVT2gBFm94S1yw+YjDmdRrb7rIkX7P5pDz2IxkfFomg0h4LVUJ5Uvhn0pNJMGsvanjk0d4n4IkGxa7S+KLCn+DSX/xjf5zGfjeRRwfNb8dZoxZpfsGI0lktruTGPptF9HpMPZ4AHPfn0sounBuE3nmzz1zlppD0bsmyxiw7xG8nA06Z5mMy5jpaPwUOjNd7h3V6Kdr3OnI5FW+dar6xRklrbX/3tQ4cp0Q625kI3Bw7eGnSQkL6aKF10dKiwNRt4rY2AHQencLsJQWM6QPrzw8g+P0A68yt70UF+b2HiBZsbe/zRXJrFk8rPtTylelJBn7W8GuJxYSjOfsjssw1EV7z0aThPQD+j8pseGs1nMa/p7PKV3576Gq0Y8muRj9WA9cZQXvivqTUOcA7tyx/9gXOpKfjM33LNDt89zcpdZ2HuAgH21FF5z894raM1X1rIHkQ3LnzFSwn70+9973uvr08FciJoDM69kIEgR3Y/nviWJqDmgOO9g6OVKEk1xys5CtoczR49GqynQjYgXvuSaW0ExhJaghwgeXQHDRyiWxZPOhWXV5caiy5zI7l0r43moD1xsslva4AGxWYUX3bLD5pXpQpKgbrBzY09mTSKURErMPrIaar2NZa1fX6KQw401etf//pnX/M1X/NQ5HzgOz/4LQca0St8+SoOPPjLL0QTlzm6tbkc9/kQ1LjiTIZ+aK982fOKCOxZ0ysecZqTBfag+hED3Z01mli8DuuJ7Nsr5mIxLtIJ2vv7f//vX/kmczXat3zLt1wFs5DwzpcGWq9R89anM9YrV5LNC0AyOFwRmSuKeBUDGt6++AB4OwR8DkAB4KUb1AzbFPbI5BMd6JAOgN8eXYqSfojORj8oBclCgIeN0Lp960b6HGr8/BCrIvnEJz5xFYwY5UVT9BTyVNVQnkY+nzhYsvKFv7hqWFgs0eiDbGsW/zm7xvKP0vomsf+zgEz+koVyZw+vwpQzNICPjNjY5FNr2Noe4C//P/rRj15Pp3Qb138+yDd7fDaXK/o6S3MyLhw5c0HSX9OUb/bw+taSXufpi53+QV7xsEHn6XNxnGgP/uAP/uArG81NFNMptOvFFN7h3T7YPQ60x3lBFEiJNbrllh5/33CBGi3dEgYlVpKN9JCDDgRvhZMfEN1+RR/wQeGTx4fH3I3foa8cTH96moftJ2vOvjgVGzS3Z+5LCI0Frfcp5UavOcUM0fCY08vfBXnxraHG0lD+MxBF5vKQX2ufT9kXf83OJ76TxatBzyYrlyfyga4z5/T6osXrrTVdXabskst/Z6tR+ECXi8Ic8q38id25ywv96x8b9tSNp1hf6Ihf4+3TDC9gvxiMGyMa3vz8kR/5kcsvtKvR3vOe91wBEQKbgHP9xWLOhUCiQgltlIBucM5a2ytwSVEMkpqe+LwCWEugIjOPh10JXB/IBXRfyXm5YfB0QAqX/qA9zebwydQ8HTwM8FvH10iHsQMTN199de1LB43g6eKc6LaHly+N5Y68wrLGK08awesQ1FDWGqTbW2HJlcaRO2s+uYBdInIoz3RWyPSS7+t1/strINbiMTbP59bA6MLwWdJnx/LKhpG99IiJjxqbTfVhXy47G/nzhLfX044sXXyEmgw4N/rkVqzQHI0tdvkDwa7zqVjQqrEPf/jDzzfaN3/zN1+KF1IKUkpZ9KfWkNGl5whoBOaSE3ISmkuWfWNgTSceiVB8kmxtT7IrBHMHZa5A8g9vRW2UCJDvbNtzGHSg4TN6cjigYkKnW5E6IDLpNAI6QHquxL9EM4fN8499sShe/osTKgiF3+dCoyLXHDWSJvJlRV+7eyJpGr7hp5MeuLoh3dnhE5R7xalozcVuxMcW+/TEv7kE4ujMjJ1T+YvujHwu+7Ef+7Frjl6j0UsuXjlmny28nYccyh265vJEs5c+ssUpBrQzD100GxO9eNmgwzw84wjQPvKRjzzfaO9+97sfXh1PPJWFa9CedbQMnjoYTCbaykIJhRJVEtNXIgF5yfJ7dZKBjleS6DRXVPiMJRYfPXTiA+TtAaM9Iz64vvdKxsd0odOv2NnqcAC5RrRdLyoqerJLhyJwaxsBmiJjA92cHPre1OSNeJwrNK+YrNPTvjk78dBHxiXic47z6JKxp4k9CTVvjVnMYhCTsXM172w7w87f2iuezzR+FIG/nCh4vpKjo1gDfqGDzpN8r9NqyJocFFNvb3SKu5jZkovW4sF36s9vaK95Prb2WZMPYnlotH2ipfwxpITzKQzbo9j+CStj3lqio3WgCrfXFAFIrkSZQ/z23NxuIUCOD3jpkURgjR+NDfYUh5GvVyJe0m0E9ONzwOhkAd0KLeQfGh6+AK9jDrOmsreQvSCe+JdW0yTDlrGCNrbP3/wG+SVO8cuFQvJk84Qz73NJccpHcddUPu/1KueCsecp6VWZLP3Jr6+ALrkjC4ydNR7+WrPj53m+9HHu5Ozzm43Or/hP/TDb5nR6kjgfNsoFHrrwodnjv+YysgU1mTV+fNlgz3rtRm++/B/72Meeb7R3vvOdlwFMEDRfpPBU+hjmFD4Qf7LpKdkKVcIluibrUKCgHSg5YI2fnM8vxnglNb0VPVm3HJkSiM8IJAPdSI79aHhCdAUngfjSzS79nmoaP9l0htlKX3yNwdKMMFhec3EUu/yUt+aKSx56hezpRbYcynmfw8h47RKjRhMzXezsN3Kwwl3f85XM5s66c9m5p9iHPvSh68nZudNRo8nv6tt46Ug/H+yJpUsVzV4+0pm8OZo9sTi3nvYQH1gb5IzAyEYYT+g1+LlG81N+BmwWQEjBruNJcfT4MrJr0NrIcQcqqQ5aUqCDbuwwAB0lqRtPIszdXD4rSJJCtycWo73mCqwCsi7BYZCPdLMr2RsT3yWvgwzw2eO7ZnNw+ZwNa2BOX/TW9rMZvcNO9tzbJ4pmYq+881Oe8yN6Ofe61s1v5L+4rcnWeOTF40kmNq+Lbn127UH+APpBuUFHs5Z/NjpbyJ5vGv3sTFNbs2mPfjGJMUgvnek+13RAIC/lsHl8NRqa+IqLPdg+wC9/Oy+fdyP8+Mc/fuWQvYdGc8vZFMgKgJKydAnbQIF5iYh3kyqBNRjsUB08LMlkAjbo6kDblxjFQA79da973aVLAbkFJcpNiU/CxMcHPDVbeh0maC02dvjfIdsD5BSlBC4oCqB4yXu1YtMh0tN45myhfWDkyx3v0vDQvUXf2igOvsoLlC8+upTQxSLv6GLbZhOzGHzh4ZW4L15qMj7mZ/MT+Jpe50anEaJZ84svzssYH2CHPWe4+unFY4Tt0UmHMd/kAQJrYE2n83UZ9zRTC2x2aW1c2RHP2jx9aO4bVL6YX432tre97QqG4ydSGloLwJxwCdn9gLH4gRE/PodYwxgl2mgPkCshwFpi0BQEXk8o/H5wa+11xmcOtyJeBaJg8EhiDYim0YyAnx2mORCbff7Z20Jiq1dQa3tsdPvZ5wM5XxjwBV9jUK7Q1i7Y2EE80F7z5AAeNtkJFQu0J+ewpzE/NVkNxh+YLfHIsQaTW02mEBUm3fwopjA/yNOVf/Q7fzbltLoh75z4yA958+OT/AHs9JQpL8We/mzSJzZnxx4amfUvvfRBNSFOTzPxZYtP2Vu79KQjnesHiO/JRhMkxGy9NPPoNdxiwQHJBDkWT83l0Es+GWi/gjUnB+xdzr6USIViT1E5/L52RvNVP/1ubEnzNHOADrMCqYE0Gzsl0R4dEMRnn0+AH2gOk/+AHD/5h4+8PQWj8SGeoBwG5adYARpsLk908CX5MJ748lfMRueqmORCQVkDeiqockNGwUHN1df3cgnpy9YiyB/r5sVkLJ9QjvDRyTd6+S2vzkVxJgf41ltKOYB0NEJ8ZOmRi+Tba80efVCszkhu5AhNbeWTOMhubEawcaY7wPOKRnvzm998HUCCixRIzDm2vzSABjJsDGusEp4OjsQvKJDeAL+D4bg9B6cQ/IYEvYrbvoRpPnoVDn4J80UAHUDzQfoltGLDR7eRzuVBh3QoBocJygG/5VAsZPF52nqa8okOe5B+Y/LRAutyA845n1qzm3y5Sxeb4uqpwb+aqUtg55rKK6/PYfKl8MiQzU6w8xPyl5+w85GTzkBOYE8O+tWGS9IlRSawx+/yS6ecb9xQvOoCZhvgKf/yUZ10NnKARn9vMBuvWF4tXsBevPAVjeY3sgWcc7DCEnDz3V+e1gHF6Eb0dFSA7YUdSrLm+PDbE7i1ZO+HdsXQq5CDJIcG0BQNWY3nNY4c/fbyp0MA5muvA3M45AAZDcgeXgeCxz7/4rGncDSlw1TIaPjoB+lE33Hpi8DeYrTdp7+4+GeugBRSzdZtDjWYvCm8mkvMFdvqP8eF/LEH5QX2BlOzsd/PHPm1xW3fZzWv5/Ttfo1Gt/PDHxQzefbYxYe/WCCb4nQeYu2pCvHJWXkDG/tj0D7exVc0ml/xEcQmxxwqmmiLAgXm+CgDpxw+wbduHwI0+0vHC8naFzT9EqDR8NvD6zOEr4Xx97omeQ5Vc7lA0MXnwDSJBnIYmpScvQ46n2E+OAD7V8Je4nHrkg3I2HOIRnLFh0+zeRXjFz0L+MNk8DQHT83JgeRhsRjFzP/GfbLxp5scvaKW5/SKLWjOhnn2gtaL8ucs5ETu+VWRV9T5a05Gk/VZrX1gtAbpt+arPbjnB+wVlzh7cudD+dgmK5fJl4sT8CwvyFf020Y7n2iEc7r5Ha4Rc/y7L8Fw5/FpmLB99OWrqQRg7HbEb+43zf3muubBg18Se9dGE9snP/nJ6wlHL+jVz+iQJVtC6AX46DeSL4FofTsWjZ/mdDioctAh8NdrpH1PNzz27SWPN0iu+fIuZGNl+RGt+Y4VtHlj8uZAzOkAbLeHZs326Ze52EE5MGow6GwUN1TYfKmxzfOPnGZzqQL7dJM3Og98+Wj/nOcLPnmHLpUazJO8J+o2Wbb4Usx3gCdkL2hufEWj+WqcwRIDJXuT1RxSDhqD+HKgtUKDFa6EtTZHy551NnaPf/Y1kEOLF5/EK2Q60SVOIiXNKGF+ViPZ5pqSDvaLiYyEQDrpwmOPzQ6WL55Q9isO/IAfbBYDsJ+c37CwdtjZswbZBY3B8sRnjBZ/thbbWxpYnTuiP6YfmJezAG3t2ItPnnq1p1uxK/AtbHTnW46tnZFXfmeULjmUWzLOkgxechDdGaQLGNGya+w1EWbbSB6/GrJ+CspPkN/Rja9oNN/WMVaCBFTyGI0OokezH09yzdElTJJrKqO1uf30krEmt3P8xg6kL0BqEkH4fOHPR7IvFk8O0BMEHzlzPHT1WY0uhyDJ9vItPzsYOsgoALY6IDLZpb/46QvR5aIfR/ickHxIP6QrsKYvyFbzHUE6VlfzbKyt0366rIPonYmRT2sfD2gPilPMkJwc9nSRE/FrAnT5KU/54+t+bw/VT/rYqqEgfeToaW2eXpjd+GD+AzqLIfsvCisLzMm/4gfWGo0DCIzDEhkulMjlAUa0QGIkSZLNjTC+DSZ99hsVeYcksUCB9vMfB+NgS6bXDbrpte4mK3BPNQ2V/XxLB370bTT7HRI9feay30Hn+x6gfTaznU/yoNl8zvNkoxc/PvEAugAZYL8xfcA8Gjxh+Ras2TLiye5Ce3wpR+aN7C7ixxePHHZ+EJTH8lSzyIs1e+UUyL/P386VTsAWG+ztGXcZWps75z6DiY9OMjVtZ0xXCIobFD/aUxA/38xDv4L1XKN5SnAygzmQ8NIWS3IQLxCIxAsKku8gVo4T7cES0Bpa80/yNJjkKdQSIZFeEb2a4aUbH5pitq9B0N2S5D2ZyPPNCGoaNo32jOzaIy9xbJvT67CLqYPOf/vLB4GY3dT+2QF7CsNeB9pB7QHnI0APg+yc9GirDy+IF6JBscDyaCy+9hsDa7AymktR99YgPvmp2eSznMBiLg/55FJ1QcrngjVePFDevb04K3o6CzUgv2hkIH+cLR+rT/TiAOwHO7+Dk5ct8Ionml8UrdEYawSYzqSm+HQMnyDgBoVPA6UHPRuciv+UTV8H4ObSQC/5fDVOOvDYl2QHo7jYc6N5AooN4PX66KAlF9CBlwxcH/LZQdkzVzgOiK4KJD8qoPwnY8TDh/gDujzd+Mx3+0Au6YNg52B1AGvIHlnzRnKdF7DGF31theLZ/MPdW1qxg2jyVqOhsSEvcmDUAGKF1vyBxdDcPl0uJBdksL60ZouMM5DL8p1NkO/J93TTDGezbQ7hU1B+dyTziieaXxatGE/gXILA/ERgf4PIcbQOw1ziogN062j2YXtAwiTfAQGFDzQdGbbse3pFI8M3X+WSy77XkA4l/WxbOxAy+VAz9kSzduBG+smwC+hiRx7ZsbYXL3mYHDtGdhwGBOkzltvyt3gCXSG59DcH5NLVOjt83jMwxxt/c9heOooXkO1Jgb55MpdLedp82IMbQ2u+OTP/NkrngQ46o2Tk0Gt9djQdPYAtNJBcsbrwyJrTI5Zsp7scAvu7BtaL4BVPtBptmUBGl27M+KKAJJ+zRoEYyUNBhXS0Z0zOAQLrdK6NCtkTgM90pYc9+5KMbtRQXh3QAbvsuCE9HfMFrTngByQP8DooNvrG0b6DZIcc5Js1f/hbTOLoaWeOtxjN0Y0uCTbM7ZU7cNKS3XnrxfYCNMBPUP6jm+c3NLdXrtHMW2cnHrlRuNbFCox8cRYuynJVTkI8sDWdRmfm8xq92TX25KSHbmt8aqSzqbazh6/Y6JdzFyhZOkF5M5IzsrnxgPy1DoHxFY3mMxrjMRIEKQDttb8jKHBg7LCi2e9woqWvvdBacCUejwShKVjyflAtwfbImEuYbyDJe7W05/WRLD2QrM9HxQv4ST4gjwbTYcQjcUY8aOnlG51soRvlgD173eRiQiNTMcEKD9ijo1yARjRgP8wXY3ztBebsLN+J/KK/c0Mzbw+Yn34lIy+K1bwGFUs+d37yIF45Kn57+WxNDuSvz8X+lIaNfAF0Z5dO+tn2r4b5+WpnRSb97HbxFYdzrdHQQn7kZ+cCzXcNA3LWt986MpxgBlIQggzCYJ0yCr4iKylG9KUtRCfPBmDTXAIdjpuwYkVTvG4utqBGQ7Pn6WDuacSvihhIvn16ioss+4ok//kiyfSgS1of7gGdMJ/ZNS8H7ID26GKvPFh3iDB9/EU34k8nmXO9ED9svkAmIIsH8CedzRsXyKDnf2u5E6ucGV1y8lW8+IzW6gyWDz7AzqJx5+T54h+E1UAgf8m2z4/k0DRn/0iss0PrfMl525FvvgB7dKQ7/Z0NsM6/p8D+7ZchCjgGmEJg3noTATgDBFHRmQuG4zlbMoyrz4ienoAdew5FoUNzjQPs+aLD+zs7wEEDsfgGykHCgH/8YsvrRQddLOTz2chXNvlircnwQHq2eYw1GlBwbki85YuedOHjJ/3p4Asf8dBVEaCDfIfl2Jh+CNpvTd46OjA2B3RBvvG5fWt6yGY/3vhrMvlR1D0Z8t9cTOLsPNHRipePxWkNrIuLLa93/VN0/AB42+dDT9Typ3FqNGNzsP7ghXR1PuxY84M+c6O9fHwM8D76REMIzCGl0S+Blw0sb1ACIGf3QEBz+yBd5KBAgcDslYSK2A1kbi87ilWzoXniSbanlVdLNEVQ4osJj9uOTcBuxZWP8fYETW/6gD3+NMdnD48nrZHuDgpalwNzPvsShzwaHXRa408vXmM5Zgea0wcqVIB+d0boyRiL2RjSawR0RJeD7JIxKmx5gYrKeuMTCx3lQLy9mdiD9iC+8pXv5vlCp6daf50B8JlDvPlUs8sZOt81ncvA71FqWnsuZP7wQ72hpZO8WMjnEz4+5t9jYP/Rz2gxhJSDjDQvyIV4BcPB80DQK9LL8EsBQUDf2hWIJxefrCXAZy+flew5sA79Jf8fbij82TYnl/10sYnW0wk/fWgOB4gFHb/EmtsjIw689LgEgDkd+O3xh+7isrdFhWZPLA7ZpeDpzA46Hns9xctVh5wOWLzkTgzwpBvyEaIZycfT3qJ9KHZxOUe5cJl4TdRk9u11LoC/8s7fciQmZ2suFvTiKU7zjRHyG41+TzU+LNgrZmN+Gq3Flo/Okt9iIMeP8ppf+Io/v8TTOeMx3kE+3746OlDAGIi5RHA2hwsI4GkPdjCC6GYJ7eEpICOkI7sCUHyaCghOM7n1u3nokSg60TShw6ZbYB2mNf/5YyTHloKB6PQ5EAXB5xILjPzcQ4NyQI5tfuNjkyyf6MEH7HeQIVp26NdkYuADefqdB52QDF4j6FzSZd45iKkzgjtns31jaN2evOx+zQXFJb8aDJqTA8VUnoAYajS+WjuXzhHaA8ZQLKARTYwAzVf9fv5YXMmUg+TMxcAvPnXuzeVaHGqHTPb5Wk7oWHBe5f60F6DBV/yuo3+yjQLAELCZ8WCVFlxKzTscyRaEYMxhe/gkfBsNZEvy+yEzmtvez8IKUJK8Kho1I50aURH4oMymw8S7PhrJmOORyBCUWL4CfHwhhy4e8sWggNgBNQMeiaUjm+jAHF86YQfWb7DY53M28MqVMd5yVmzA3L41X0N6+AE3ThgNn1FsYWcGxbOoKDcP2YZ02ZcHe/LDf3P5El+NJhZoLz0bVwh2nR3/PJ0zbx+drFiSA8WZvHl5MYrJ5za6+M4/tZZve14Ana3OhJ7dD6xf8UTTaCUkAUp2zUFgTXn7IGMS4HAqOAUtmAKTCEFs8ZRYo3XvzOwJuj8QJE8ftO5Vix1PN38u478jcqD2AH9AvmUnv6JJnrWRPiMwsqGwyIjNmg4+8hdP/pLtglkobr6Vt2TtyYXLQsPJjT3+2COzjba5AumIbgTyBfOdPqN15wSLy8h/2JoMFBsZ+sxhdrIL0RWsHPCvosWzjSbGYkl+9Sydntbm5cETzZMNsIu3Od6Az613RAf4xbZ5YEPO7YkfbyPb9ozxPQaveKL1u44b1GJwtxcWIEdDNM7lEOdKeIkGBe0J5RUKL3/MK2IFgq4Y6XOg3UT9toenArl051e3MDsOpGKzB4yQXnuSw0/y+GoeySbPj4pFLHjx8KXYAd6KBQ80Lyc1FRSrZnNJyAManWyE7BYXvcYFvoJswGLgu9gg/4zR7LcnD51HkC64+/nCN/7QV6OhObvOw2hdvtD4WSzNg3Qvbf0y9x8nqoF46ACnf4vB0vDLAVRHEJQXcUF8fBULrKYfg9s/kyFIyQmnc/HkZBiY55BDsZaAirOCAyUEH5pGUWT4PNnQyNPlgDSZgP1sxG8KOFRrjeRd2z8yRKdEkWkuWOsOouKC9NORn0bfSJqzSV7h4OGnxFYodLqh0XsSVIj2IX1GumAxkxWrvAMNptE0nNdle/zTFOTlrzyShUFrthYBezC/sm8Ndj891uR3Hu4aGPkF+etMnAdZjSVXnb11tPKXbHMjnY1BfgJ08s78s5/97HU2IB3LFz4GeMtFY+fYpQnpoB8Yi6Fmyz97ZPHf/uGnRJwO7ZoS65QBYzzG9gFjgkbDR79Cq1DwlViOKiyNZl/xOhB7ClFQwM++fL2r0WoOsg4YD/Sq6VUSaCgHL3HdQnjZNgLyfC3JdNqztidRe9OjFYN46GTD18U9OenIHsQnHnN7kK+aC51eF4sGM/pMao8tOsUqV9Zk2YbpWoxOJ2xdbM3F0zzAH231B6vPHFiLhX8KUi6gtdjEbl/sznVfHTv/7DyGC52DnNDh9dHX9eh0QXNwypLL7/aMyZjbN9/LWDxdeGLBby4mtSCO9K3+RxsthqC5kXJgpDjlIWAk3kZ8nJJgjq2eHHUYPcH4gVay6HRzSahfqREwWVjgbHgaAHYVad8meToBerfJ9jDokUxgrzG+kscm37LJZzz9ILQnH/6VUXB8YguSlQ80T2k81i4JF46nGt35LBZQLvGX33S2BsUGlq9xwTpf2zOGu2e+PPTxqYtH/Hwtl+jiqdnE2IVTHPkUnmvQCMqtvGgG+fYKyTY6f8Ceb+NjCMgmQzewDl3eao//ZMQGNxY6AjzbaJ8/mZcBM0eNCzl0CbyciMCcASOHyEsqhxYluScAx3bM6ZIkUE8hTeLPWvyOm99P7BEO8DpEtnsCkMPDFpR8PnlS8ME8XyF+yI/W9ul2iHShlRPYZcC2UTN345EBm0e68dHbayhArxA1ljVb7fHX5eGLKg1Ivlu2w0c7QRzsgkawPjWH5SI5NPbjO/dPPojGl/JXA/ARrMyp8w7xhMkYs+kMXER+sdz/G/HWt771wWf2kzHPh1cD/IAMdJ7OVYP1VuEy9TaFZg/deXYmQToWLu1LjEnARg6cibiD5RWoIuqVyQgVXIdTgxl7mgEBuRW9DvgNACiwArJPnow5vYqRTTQgIYpUMhQyH0rkxlGCzO2XLH5ZQ/P22SgOeh2Gy4C/5vHwjxzER4Zu/oiD3wCv+O2TpcMee3Tw2xdV/u9oeviLhy753sM9gT5QrIE5u/Y3rmhLj/cxfuul8ZlffKw4+YxHLkC1BU+gZ+0s0l9O5cxF6ox92/yt3/qt1794Ro49fsA7G49Bucy2S1Ec0LnZd4H0WyW+gHOW8bwaXKdxOlRgObsoUaARlIz0GMmWFAVj3H38eNABfdABaaxe/QqEDJ9qXGuN5V/wIscWnQ5Xo3kC+j8FPO0qio3L6FCybU8yJVhC6cMH7AF2HTCfyUp2TUYfevrJ869Xxi4LvGTZxF+O8h2dDmt6aja/VGC9Twu8cCEapCPkAzBCNmDrBevkWi+tdTpgfGLLR/PlNZLnW7R0tp+e4krGmIx8uey8dvsiz1PNfw8tPzWMeTLlw/yEk2Zdbjsno1dAo5p05s4STROqmc4kyP/g85m8gZw8EeT0SZcQAcLmW7AgZ0qufSNQhAJwUAUL0iW5+KEC7N86wYunInbr+DxnHg8fNUpPTrrzxbwmgZKGHx3SQ7+DpQvykx0j3uI08tMXO5qMPjzd8GxmN14+0W8fv3l5pVPDajaXBtkuA36VoxPILljTe4e7l90XQfxiSDZ/xFHxWcfbOVuXW/NihukO4w/TIy9qQE5ctu9///uf+Re37W0eVz6b8A7I2BMHfmN0+RYT1GhQk2k2Z1vN5uMJF2U3G3PG2j4wLi8eytch+wW5vCA+dLJGUBA5XEHmg6Tu3GtUDeSpwoYmI6f4oSR4iuDRRMbsGUtKmL90aAy+0skfttmECsu6Jy4ZjUK/uB1+X2ZY4+k2zE4XCkjOnjG0Zgc/m3SK2ZyPgTgC/JBs8gvxLj2fih+CeNABer7Fv752XkaxOs9o9sW5sWYHpNt4+hGsH4AueXd5etq/5S1vuV4h+xEQ23iCfAmaN+JN9+6RK05xWTu7PjKYO0+Y/+Vm4aELCu7EBYbRjClcbB9GYxC9grVXUq2BOUcFga+5fUiPAlPE3st9S0qH10NPBPyCttZkZNF9iaDQzRV+Tw6YP1CyFIa5UULbo0ujOsB81zia2IHyi94ajH9s4WWDffrIsUtfNqw7YDboMVovkPXK6sO/ogJ0s5+fwHjKfimAn6vXHJbLYmsEfOMjQJcnaB6kI33wDsQlX0F8ZDVar5Df9m3fdv0sFbDv3Gu2cvRagJ2ai9/mak1czlDN7Wc1++xUuwtXVjZY0BydwGNO2g+TiZ8xEK1bBqw+85KIF6Cl0yhZCs3rE6RHgAqarC9MNJmRjCePL0jsKXS2Szx95CVH8rKJZt4a4MVDX6+W5CQYf4fsFVFTe43hJ/8dRE22OsnB5g4I0K1Zs5MvdBkVKT/EL+4OfBtu7ax8uPtg92BwzvkZLR1G+dlzig7zjay1M4Tx0xcvPGHtweR2DeVKzlxyb3zjG5/9vt/3+64vRgI8dCW/gH5iZ9O62syetdw7W29NRhfvngU4bV3Z2UQGrQUCCyoFy99eiay4cjT954FZ797yAroUmIJ2m/v36wUiMEUpYF//91e0gA/4yKWTjMNIX08vtGyHZ4w9rciRl1gJJVuT+TwGNTJbNXeFRk92mtewRgfWZcJO9hvFQIZNT0w/ruCnONiB8UCQrTtI78JTvKc/YOmg3EK+AT7gqcnKLWSvOTzhMfodsOmMNNi73vWu6xWSbOcJHosPZAfP8qXDOeav0bqPJn1Gg+oRv1yc9h6eaHAD42D0MFi+lVvenIaMQ/OVzXF7rSH5Dk2hK2ZPCwEKSFLJeYL5bZEah8/760uKGF0hSkIFyZ4mcfhr2z6gB90+Pj5Asuzzy1OFLb5psOT5wk+26YB8AEZ85PG5IDyZ6dVk/GYn/iCf0cWu2Yx0dLh47D+Gd8CXVwM8YdCZwz1zazlrDuQSnvRg9exe8/aeQvrlTQ69Qr73ve+9RudBPtt3sDbvQO7kuRpLT40G1YTzZs9Z5PPCtVpjd0xBe/EbGV8Z83AP2H48RslJzgiMklKxWStiTVYQCl+Qfojtm0V0uhSpwvcKYU2eLkVtXgIkTJPg0xAVKD/sobHf00MjKeqazNPVExOyyYY9cjVzDc4m3NjohfgckkajZ/WRySdrY82WX25vsdHTnhGQfQra35F/EOyZgNXXvOZZvmLkl32j85NP6wAfG8Gpo/X6t7gQP/3Oxiu8H2C/733ve8jjnRxIFrbfOmjPuD7T7ZyhunEOzt8Z3Nm6JFNOUfhqgCeH7hQHq9uIlzPmkhPNfNcOrM9A6A5MkfmbM//OvgLFa1+D9Wq5MTjoClBCNAMd0YN8sg/Iam6oKe1LIn80qJF8rw3ZMIcAbW9BNhWcOCpGN7A1//v1K3v5YxQj3nID2CfTZ9QOOj+KLf4FOk8sX/ih+QIeOqH58q1f5mhyXIyNdzaaJw+WdvKEC9H4xZZL0edzP1fzg/4uP/sL1kuj4zGfinnr00i33MOabPlXx3MZbeN0oHHneCDnosEO+zSWEwVjvfvGZPBImMJTnBIIvCb2W/t4FKcnjoNVsOTpTXdPGYno5pEsB+9pCGpge3Syp5AVMeQHXegQ4OWDEYi5Ri4fNVy+gxqGTheDRrZPng/0k7dWHBUInvQUm9xo+uhk2CdTDtDIA+PO7YHyDozWQXM+5QP/a6h0mEP08ievLkEjWrKrP8g+He0b73hPiC8f2JKXr/u6r3v2Hd/xHZcv9tm4izN5sPvxJFtOV9ZcfTl7523uDPC1HzzXaDZSlDLJbB5sQig1P5O+8gsn3XppZCVH4aE7KHQN5qt7gK5oBeUAJRZftgGZCk8CgITg1yQSY48t8xoAejVLZ80kTk9Rr3to1sVQgktsSa+xKsxsePK6JHzG/JEf+ZHrixyyFaN5TRag2y9XdGtUPvIl+3wyhtYdPFidd3DqCNjdcwXm8RSncyuPPbHbKwfkVs8XA+tnOuXJBewH2c4Svbr4QoAsG3vmwFxNOWvnddbFxnhrPceMcANJ2P6d82ibTEErCgewdA7h7Qa0t7zoDkth+08OFGO28dlzq0soPedNIvBo1vSQ84NGr3wKXRFIksSw6ZtDTxo68bLpKapx8PAt/XyxJi/ZJViyjRWWOIqFvz6kGz1R/S2VP/v59Kc//fCUJkcX/yFd7Nljj1/N+amQ0MjkQ7jyS48PHQJrMVnbb6/zAq2D9AVyWKP1NiDHaHzs/Pm/44L1SVtor5FP+eG8jeK2r65gsSys/N1e+8A8O7uHxqYagJ3BqQ881ykpSJlEAAmqcNoLS14I8KHnHMi4EcZrbC87DocOPxvTZJoEHTgwrySKTGOgSywd5vbZVPCQrCJmx4FH9xkHr6araD1pPMkUiMR54mgi+vlTXBU8nZqwwm2EeNlz0G52ev0MzFpz+TcvfL1Ptz+nqKHLDx/3ogDssQv5QZc46MfTQdOZL+lb36IFOwd8B+wlk9yC/cCcnEvFRSKH8hTyN8SHf/GLBTE7Mzl0plB+jexl84QzpuApv5a+jWbOD3jm68oowZyBMRntNT95m69hvB24uYIx4tkkmxvpTTea4rT2NIHmDqqbsUM0BwVX8bMruRqs37KmV6HzA69iQKeTnNtX02pgxcvnPoOxw+fs5KORLXuBfXYdNr3x9YUNu/5dE9+Y1kTi03j+55F+qwXaj4ffoHzTmR/89nS2Zh+mF5BNHnQW9uNFM65PaPkSpod8vhij8cEZiLPPZ9Y12sm/+MUC/5yX5lI3/k2RT3ziE9dlGdzZKx93ULx0gz3rwF55L5/gtPPQaLtRQoybHJCxu73mjDPIsHkHmM4KpeTYExTEi+6ANJRD67AUlts7evbTpXkUq0bzikhvDQR6PVMAvVtrAK9ffd7RJN1O7LErjnyDFQ2afb5Asg7anD5PScgGXf5A8ad/+qcvOWs6+CgHP/zDP3x9m6pRxcRmuREbLL/GclmzyUsHXS6TW4y+kI3kOrfVl818CJYmL2KXR/7UYOXLiLe5MfnVA3a+kC9g5UJn7O3gYx/72LMf+IEfuM6SDGjE1wijB2d+8jNYfrzVy5mzhVc0Wgopv0P7mzCwsgwwxrix4kSHZJK35lx68CsuTWBfEXmC1SzQ2kHaJysoTy6/IWLUZPT2uuYJha/XsprJPn0aQqMpCodEX4ejwc03boVUkUD84vOa6ya17xVUg3lS+sxHj89j/ScNfBIH++yy5VVScbiB8fB5P2jjgfmxRSwWcbAN+BTS8xjSd86zs/In8KH4m/NjcyTGfEQP8/lLBdnvMub7Jz/5yWd/7a/9tetzsLPBg94Iv1RAV83VWN7WzlXhETjC4RzqEDbZ6MsvyJQytEXBYLx4NiGSvXrM0wPRHFZN1tOFHL2K0e3vtyt6iilKcjBeOmscBcA/unpd9HS050mUfDJ4+QvY1KR8ysdeLzWuJ6i5ood46SfnM1hNxGd8CqBcyQvaj/7oj16vkWIBfEDPHgzEVk7YEo/mxcP/LrhsoG1+wdJ2LIcQNAJz/sIFaz5B/si13GUrGfvNT72L+XmHJ9DFFptyIMfeHNIvJjxPAZ4A752dE/LVGcuzfG/NL1zWc+gO7JVACkqQOec6IIbMGYLNk5EImLxRkSgWa1ii+qJD8ShscvbT6ab39KpwQfrSDfIPsMNHPJ50NYNi7mlnr1joJUsOrQKyNucHPo3gaaY56PXDUqOnJN5PfepT19MM38ZdE6HhA14tNWWvvZBveMsln9JDrqKWN/niW5cE/vwsF2gntBcCNuhi50R0+3fgrMRXrvDjXQQ7fwxWZvEO2GHbpey3QvwcTeyP8X+poBzLeY3WWS08NFoOYVjnSlRJ7iAAOn6IzlBrhxuPQujJAegxzynoUDQVPgd18lTUnjxQs7EpuQCPNXvGCg2yXxLMa5ReFemomclJmrliAeZkyPITj2agmx/WfPb65osJlwRZX9t/7nOfu3jsi88lYuSP5rRHL5r4fuiHfuj6rMYHoOHzk72AT4DfZBVYT3+5w785sO7sooWADEgvujm6MXqwfGH8fOryWNlsRdu9E06exTtAd0YunDe84Q3Pfv/v//0PNbQyxROs7+vfY3GD+EB5hejluDF4eJ5S3A2WoV0H1pTYQ8/RjDS3p7igucKynwPoDoQeiM5pBab4IBnFZ+5mN+/miB/NOkDHY+RHDYRXE3uSKQL77CpyiC95+vKrPGgcPttX+Bqg11WF7inW5zLF7scSmozf5NFqQrbootMee3RAnzV9W+bzHrpmYaeYyy8QF//EI66+1OlSsw/MT1kQHV97Jw+4owXkt9j4Iz4jzAfQ3Bh+KYE9eZWDd7/73Q/fxp6Q7cdiei1AT+ckD/AuX1ejbUIwlDRgXKHWFHf4lFtnjK5eHWo0NtJtTEYRKdxQ47RXEyWH3te3UAMCB2u/4ifLniQXl0J3ABoCL56eJPSC7NpPJ3l6FC/QWJqHX2zhAb4A+fqv//pr5KMP5F4p8QM65ATyjV2NCWs2+YL9wnQN5ukpN3yTi7C8wppNfJqZTra7nPhJBiQfTdztBXSnny5jtIDM0pa/c1+IP11fSqAPsi23nmpvf/vbH/bu4EvhB3lnBOXZKK/VVHA1Wkku4TkNcwY9xOcAe9KkHG/Fm0yHCQMFQ1YhGe05GLJGSA5yXsH6ksAHXF9+9JTAxyY9vtrnl4Lr6aNZ6PSU0WQ9zdike+2Q5Vc6yOZrlwY/rdnLfj+P8wusmkwuvDJ6MtGLD2aDv+SyUb7w0G8tRk9Dl4lY+esSkXN6NpedE130eKr1ZKOzmMgF5NOR/An8DONZBMb0xLdjOcz26tsYvlRAL2TXmb/pTW+67L0okAXr252fy2cuPucuz7B+WNnLC8wRzUtISQH2Q4d33pKKrYIBBYhHgbiRFQxZSA6PJwU5hQc46Qb3RYefh2gun1nI8kWzkGGPXnxk6KjxjBWzJ4ZbPv8ULzmHUdx8hPyiSwzFDdikDw8gIx4jnRrMn62Y+4de/V4meTIahx+wnFQIfV7DU1E6KCBmsXVLajRNx0dQ3gG9kN981WSaLb+LpRiL9wR86TJPjq3W0Rair1z4/xr4Kg/O+7FXx4Xi/UKBPbl0Rl1o8Iz9wYKNCmwxoDClzSlWIBXSFuhdQeBVVJKgWbzOWdPjKaEJPL2gwtJcCg2fwtEwdChyzShBCpUutguQzj4rZYOcvRpWAbLLP7JbgLADIte+ZHotNNes0LeMr3/9668fSvNVg/CPTL5B+eFHQG9NoUk1K18BH10ynorywk9N1htAvp4gH+xoYEVGNx8qpI1vsTPCJzcnRged/c7jgeI2is8YxAfiX9tg518InPrlwRj9DjaGE9Cekm2PvNoInc8Zy5WJFEKOhZgJVWSwJ1n7is06WXOFVnevM4pAkykwc0XT1/Q1FVtkJckPexWxYlas7Cs2utiqgdDZJEsvXnRzfA4/P9iwR0fIHkjv5qGCsUdWg/NVo9rTHJpEQXu9tY9enHyxB9FgfkEXgkvEq6evpP2DoGS8kvohtp8Rik+eNXlx8kd+oXk+1+A1MP1dFPgWyJyYDuNTwC6Ij25ynTl6eQbpB2j5DIrhSwF00vdq/n+pIL/VULXLvvnCc96UjJwsaSUmsA8rHAmtEPrtDAWhMBVlny8qMPs+h/gjTk+vHHRQPYX6UK/o2FZseBS4Nf1s0eu2t8cPX+/Sg8e6WDoAkL7AutghoM98mxX2+sYPvrkQFLVYPYHssVtz8Uc85ujA6JKA5RGfC8U/m+ZLFb+ALEZfihSfEa3LbaEY6OOzJvdU08TW9vCExQqDcx2wtbIL7CW3etEh2unrQvqestH6zrcT4qGvS/nU92qw/MWz0L6xfefTg2JjCV7RaI2KSqJASYOKxF5FTJmAai6GNJe1213xaSiHraDQffXtl2s1GQfJgOwrQDbIKGhorTno1GCauqIHgiPPn+ZkisMaLx2wRIQAD14y6QL0SSK0Zw00kH/+zVPDE8i+vChyKI7i1kjFJZ5odODRtNAF46mm6TyRaq7yKn45ZEvu7oDvbNDd73KyXTHwHxY7/hNPQCuPYOfJbK6NEGSnfN7Bq+2fkM3wBHF6G6g+fiGB33Iblt+Fh0bjbMFiNsZsr+JLiWJVBA5dQF7/jJog1GQK0G3uwPH7DAPtKyx79NHtYBSEwlC81oqLXp/f2IJoEtnnONDTwj5dCq2DK56aDAJ24zGSC4uXHXt0sGdeXjSTZtA0fOSLObrm6VJKH5/EiweKPz562aLD3D4ZhdIbgbl8ti6uOyBLt2bzauvpRudekOHGHT4Gu7/89ORPOreOjF8qWLvhAlvy6FU+f36hoTidkbirkeCh0SSfwxUGweYbjIOiSCD+FEEwGsdTyjdufVvmKeYDvcNVjBrAz5Z8ba1QNF7fCilAr2AKQpOxQd6vJNFPX69MihFqWg3Dr4pHkN1g/LfP1wIndyajQ6CHDrTNgXWxW9NhH69GEQM7/LWHxx6fxGWeLNBoYpUXe3SzwR965El++GhPzPIofvrlvadazUb+BLL8ZE/+vYqyixY/+/mwMeYrMG8vWP6d05vsY2O81rD1Ce2D5Tnll89YHuVMrd1B/Ktrx9cCyXQOd2cBrioo4Zv00MFACq0drsN2g3tief3zGufgFYICsVYsmsYho2kat7G/MPafEvgzc83myw4/XFS0Cugf/IN/8Oz7vu/7rt+OULzsSRwd6a8IPTkUrILmoxHggyXdSEYM6aLXWHGQL+ZyAdqHaOQVr6cFGfbLR0lmGx9dGg6vefbheSBk5BDKnye45qLb3GVjj6w89oTfGILigGzz14WwzQYea9IXga2XhXIFivnEX0gQj/z1J0nFt3Hmx+bpReAuhmKkXz7D5QFXNWHG2KYE5pg9gqBi0AA+pPtCo4LwhFEUEGgwXxIoDDRN4J/y9vnDk8tnEY0iKX6R9iMf+cizz3zmM9eTUcNBcuT5lfMKC80rJvlexRQPvzWQJs9/cjUdeTorYHrQa0Kx8tO8xs02ffbxsmMv22JATw9e82zWkOZs5iO5nszWclluvS1oKL56zZZrcfCbnPy0z9aeFwT8LA65knMod4BMcs3z3wiDndNvnZ3AuuZLPl3BqScwP9cnnHoWgXzLpxx+7/d+75Xn9PILtIbFDtKxI1z+1dF+a7o6b2N1G3xe8iVIkRE4IPMEHLDDdlPAPn9VsMk5dAXocO0JFrpZIRv0KSbJ+Jt/828+++hHP3qtFY19SFbx0S2ICpkuI3ueFkYFWFD26MG3cvQANIdRMqJb01UOjAoy/cAcHx3QU7jc0JMP+CC7ZPOFvwDNhaWZvOLIq1jR8PJPDGh4oSbUcObsyb1m2xyxHy6wK5a+HOnzGsBbPOl4CortMTwh/em943kMXgsvG+XJnxt9//d//2u2FT4FT+1vLk94rtFSoshAAg5TI/i5jvdexeGgFYTgCrICDuhBVwjtu228Gv7lv/yXr7/RUlzoRrIVWUUKze3VuPFYmxvx2ONrfEa+sY8OXAIuEbSeRAAN8rlLxhzSIYkVLJqLxBwvW9b4+Gkfrz1y/GCrg8DDvhi8cmo0o1jsg3hqPq+OEI+coNmjt3zBfIWgOPijufzIxBuFtw0XHygHC+S3qKqPaDsuZh+YL55+Lew6XeV/Ze50pN8Z+zb7Ax/4wPWRBg2sjDE9QfbSF7ANHtsP6Co+sPPgodGChJo7WDevX3T1ZUefFRQPwxWaA7d2a0KfBfpsojAE7p3ZFyL+Pgt/dowKC59kaeL8YKemCtlDg/zDS96ajuWDaFDhag5Fh5cP5BVaSRRPCDQQ3UaoUfmF33hX4OagOXn+9KrHpxpJvL0ql9eVo7v8Ogf7aHiTpZMu/PlxgqLJ/36Y7ccL4oDFAIrjTs+LAl2QXrlv/RR0BqAcvJoMPnHLgQfAX/krf+W6wAPy9NY0Lwrry4tC+Qdn/m6tY5AcheFw3RK+TbSmqCQoWq9PCteh9dnLgSpgqDE1qddNT0O/B6hYKmQHYV5R0cs2WcWDtwYqqeaKr1cn+xUwIFeDVZgSZ83neNjAV3KAWCB+dPNirlDtwXxE51d5sedgyRrTxQ9+bnNUiNY1jxHdfrGIw2Xl9ZHdZKAmtJ+fcKG82Qdi8EUV5B9bIB+LZeFcPwX5QA8Uw2O+LbwWGwA/vfKjybwp+ScM5EJc6kruQbG/KLxWXwAb2Tnln2u0kiExDtDnMM2hyRQApxWPAHy4djNqMK8j3v3JKoIKRpP5C2NPQsWlICSlgq2IrYFDqfB62nRQ5Ozlo7l9dvr8UuFBPsB0kLPuZqsJ7dONBxjx4GeXnQ7Lqxe/yfLBSLZ9UFPRg0ds8tXBA3b5SDYdaCG72d59sfbaTj49NScZwAe2IaAH4uGXNw3n5te+fBPJr2zyPV/TsbqKddeQTHNYDiDb4E4P2DmIB5g/xpt+5//hD3/42V/4C3/hqlk0cPp4hyeg8d24fqwMXMAHycF8Xr6veOlW+9N+5cfrHsDoIH2W0mAO1kFLvANSbA7JqyFFDlqxagwHhaY4fObw9FIE5DSVhHOiQ+wQIDlPG7Lo7ee0kX62+JguPGxUuMBYsfRUwUu2gnAJZFNM8ZdkDUIGAno8venW1ICcH1coeE99/qGJl67FLcRi5jt7FTgERnbzJx8AXmfFbz7WyPyD6EZAjh3+OVP24uMjWRdHlw1b+QjJnzRxQHDSF4qPDj71UaJ8kAmap+sOVr95vonNZf5n/+yfvX401H5wZwfgiW/p9LY27l6AtnzN5dIDx1udM/IzYHVp77JkIjEK1o3gNa/PUp5E9iiDJc+Bu0kUrFcafIJ2aNA+OYcp0RUMeXwOFuLTXMZ0W+Onhw389tK5PmtwfkO81m5uMvbZoC85e5rBN2905Avd1oowe/gqSvIKxGcbiURHo9vTXYz5bU/Sk3egRnv0Vmwh/RAfHXyENUCxkHWBufzs4c3/nnDmeNmyLyfOBz/Yc+STtxEXbb983DkZ6TE/IVq6imtpIR1QftMdH5DzxRPiW7+asykuPx76+Mc//iD/lL6AfLoXyDiHp3RkH558fELHs3A1mg0H4lb2g2LoW8YOGpq3dqAKmowCt+7JpkDcnvYY1WjGmqTguk04hI4HWjdHz2Y0ARWkQqI3n8z5g681noowe3jcPIosngpCc/CZTsVvDfhLR59Fuzw83TSaQiVfnHtYQBHTCxV4yAZd0F55EQMfio+P5aGfX7LDh81/+YJ86+dxeMmmB5Jl06XjLyWyXX6D1pDMCbtnZMccmof25CO+F4XV39pcTGLzQBDXa9H5IpDdF4F4TwyuV0c3tFvSo87nKU0kMaCAHAJBiXKYFXJJRVc01prNqHgAfokIFB195CpIo6cAnRUresWYbnx0mduPl2/Rag6vemzZ20Pin1HcxVfh49dM6IpRE4HkjZpKTMWpaY3WYrBvFH++10z8Y7vcmacXsh8unY+QLmuji4J/cmJdI9PpMvEkc050lWfYOlq2NDAbJyQHTlm2+LPzxs6FT14d5YQ8TGcIdjxpJ9AtRg+H7/qu77rqtjjIsHvK7jqezctjEE+w8UY3Ol+Xlu8uvDrySZ3YuxrNbajJvDY6GIpgBhQgpbAD70BKWkGWaMWukBgyxgfs4wNsADYUjb2VQdcwDovNbmN0NLAFaxSkwqvRiiE/oZjxaoqKE/BHE0gamZ5iZO2xRT/d9jR9P5PyWiduDawJaoR0kWfLyB6d5ST9YX7mP7vQPBrfs6GI6bbHL0UoDnzRoTnkrz1+oLPpgvUURLO2D81PfwFadICvc81fKHa+9raAD6Qv+XMMlod+OtWA7wD++l//6xeKNXhKT3DuieMxOPUtbzQxOYMaTc1so10R+7UnTzRFI5BFh0Cx4KxL7CX8csIkEl+AhwHJIIcXLUyejBFkTwGsLvsarKeYIqoR2a9oaiT68dvDFz95h9GBkFOMXsEUKh10ktUYZIwSRlcf5itidN/aoVvb03x8EAcoRvJ080FO7NPNLlSA5CE6PehsxBNf+dAUXgvFI5ZyxkbxsgvJQGBEC+QLsOuVWLF0FsnEg2ZuFE9nCcxbJw/i5U+09H0hQIccelr7pvEDH/jA9SYRbJwvAvkdvJpv9JZTEL8Rrf3NMbhWHHV4GU0ISBIsYSUYOGAHpEAoriGgArhzyFpTkCFvTkeOKZhuvuylr8OiS7IVuPk2JuiVroJbHZ5k5iXDO75vV+njGx4j/9zuir6nnqZyW/WZr4ZgB+DbYoL5WxMZF8thMZcba43m6Qk9Jd2WnmA1NP/4XZ7Zcgbm2dI4xnKUXwAfWXL22RAjQJM3YzGA5KOFIBkQD3/kFJ78wbkGfIML6Zdvn8s++MEPXq+OySezsne6TzjtgDs/wUlbvtVz6ryqe5ODQdI7PAnaRAf2QoWr8CQVL1A0IJ4F9tDSaw3No9UI7HcJkGnEx27NhIbfvkbzGgfs4Q2BEa8iVLRs+/Knb1jFUkF7/KP16oOmAWpyceaDHwDbNycDQZcJexrTnBzUBNuAeMsPBJ0H/njNxcGP4io32eKv0bp8lutkyhsbfPOtKn50PHQC4+IdLdyzNJePbGb3CwE61YO3r7/xN/7Gsw996EMPF4gYytki+lMQ3y80XJ/ReqJ1GKAklRhBrkOtyZVYssbAQYOVow9PSQ/RHLTEORgJTc5IF549uMAcjyJNN3n+KBo6FSY+tGyklxwZsfTZjS/+etq8/2bJE4U8ObxonjaeKuQ0J7CHhyzd7BmjWfOrPfRFvnYOoPzwn+4ATdNrDhcBXbAm60mWPvzpipe9AB14yrtsrNs3rk9LTy7dRr42kuOfXBX36lpYf0BrusTuKe6Xhv1w2hysL0E+AfQTz9h2PGFlAvPW7btkXbbqRKy+93AJ27uiFfSiDUBRSYGgPeuSCVcGoFXMkqtwocLo5qYDv31Faq54jZdzL+0rkub4zM/CcQB8sUbPfq9W/Kj448WnoFwyCs4rU8Xq/V+S7Psc9k3f9E3X086f8fCdH3iBJ4rPNnT73CTRkpw/Rjb5YRS3JhBDTybIbvHIAX6HpOCNaOTFgg+a80uTs58+utgpV+awfUB/uQadoWLxLSr+/If2YbaTA+RAPIvJr56FU9cd2CcnXp9Lv/u7v/t63c/u/z/Aw7eOFaIEb6KsFaU9AVsD8wKtuFsvLx2KJX3oDtyBKjhFgZ5tayCp6AoDnwZlhy4HhpeuiiV7+YqHDvsanK4KDS8+/BW05tEgEC/5CtgfqfoDVY3rLxjIVsDyhn+/FBED28b8gQA/nyAezek11w/+jRoHugDYxyNmI1m+s92lw7afgWl2ccqVJxo/spsfkHxgnl8gX43ZI7sy6Vx9IUgnv0JreXWZ8o/cgv3kGuECPfLiP2z883/+z185iefkv5MHaPQ0Dx6bg+I66cUV3SjvnmZQve4T7Wo0N7ekKi6KoTmgMNrOwRq5Gx2SoqAb0LmF1q0K6Ha4HFRE+OwrmG1MxWyvJk0neQdYs+Vntj2BzOmx3xwPH+hBp7dE0aW50N3yPbn6tTS81uUtv8WsEPD1JzAah+/01Uzm9jSbpqqhxLJxmWcD5HfIN39UK0a25YvvfOM73DkZ6+Tl0TqebczNJ9j91iBdzfmb74BvUM7SmU0IzjGgwxm5jHzL6D/Yp/sx/nMd8Mveq/HfrU8aWJp5tdPP0V7x6hiULIkQiLkRgk3qQvsLlEuOPYd/ynQQsEJXWIqtYmGvZrSH5tZW0PmK18GDChN0kHhcJF4HzQUO3D72+5kXwOfrfsXuc8873vGOC9F8y6VZJNJnN/46eA2S78VjzU951EiajW628Wk4utjBy6/kQL4DtHhATzKyUL74Z8RTE+DZeWiN3ppdevhF3n4F4xeOPS2hZlY8zgBsrAH5YmneOrR+CvgUrA7+yaUn2tp8DO7spHttvCisPvNTR/uPxXg90RQzBkCBZApmhRyA9Rowtx+PdfvLr6hrpvbjheuYtZtPkfIL2lccvT4qDNCcnXytuMinFw2ftacBG4oJihUNAnocKrSn4TQWP3rykLfuKUSGzewVFx/SZU0fzFeXBLkKH91obY988RjlUW7YzgYZe15vNYc4unzIxQfz0ZifIBqZ+CD7dMkTvXxvb2OG5JrD6kfs5r060kMv2ewbT1w6eZeUy+57vud7rkuzXOXPQvIg3+7A3gmnLpC8Ea5OfgTy5Gnm8lar/v7yuVfHbsNVIsGUVLChvbBkn2vQnIwCoUfC4geNeDZAth2MQ8o38r16aFo60TWQdT6ACsQ6e/ypaemxVliePAogm/Tzk228gC2Jww/7PEU3W/TyAdK7usnis6Y7HfTnIx1o7For6GjQUww6QDz8Qjfihw7YXxLkJ5r94ofl2Hyh9dLjN/KnZjNCdL7kj7XRWvxAjCG/ajRxpxsYTwzS6Q3AFyD+AxG578xPWPm7fYBOb36H5acRrI7m8YuzkYwz6w1Jjb2i0Swy6pAAwQy2Z0w5BHian/TkJUWyOxR0IwRk0kO/our212j8E4QvHByUJwtdfMVv3xpPOmtEh4qOD+QHXej4FI5CNa/x2OE3Xn6g43Pg7PHL66CRH1DT18zFw4Z48gPY40989uNHo4tNgEZWoQL+4w2BfZeEL2z4zk45DVobwTlvXf4W7HUectTILn45guXYaA34a11ejeTWnxNBY/q9PfhZp18T9Cru9Ttf8ZqvbPM7aP/V+MDaWEAPA3kXY43mN66eazTFIhlrWBIoKWEL6PiMigIvWGdyAK0DAPEYF6ORcxCK2oHSzT+jQ3Jj0Of1Ab8D34PNVocJFKF1h16xovNfgtiz1mAVhVexDpkcHexpdKgRfaHRFx701nT00wu3MIuJb3Tmb7zlNj4yMF40yAYw5y+//evGLgyNC8qnMblyApobw+DcyyYf+cNGuUITe0/08sy2UQ7xKj55wE/X2si36iawplfByrO8+5Kpv14Aq2fHx2D3zcNsG2F869PKxhNNDOrTJa5+/C7mc43W5xwEzAvRKC3ZMOP2zdeZ+B/jWXoIeiWx70AcpkNpn12F5HB7suB1EGIAbEMyZIEDqSjocPD4zSv+LRzIPn80m6eJZtdw7LVmny1zfygrsWyRpauCIoPODp35VVxGiDffN37xVbz2+JwsncXlC4saLX3AHNIdRIu+axhPMs3bp5tvbInJ2tM8P/NVrs3xaDS+domE6Zcn4wIaHXLtm1o2XG5e3++eas1XT+tTf/Mddx8k07i8wdrVYL0+9s92oD/XaKDASyowSiqMDhmQBFDS1qjktwbJ7RziYd8BeKooLAfY610HZ+6w8LCl2RS9hJPJF3x0ORRzfigABUoekrdvT1MYFQN9+KB5DSdxisSBs0eebjo0IHm8YsFDnpw4+MJGRZnOfMvfCrC53IhJbOK3hx/WbPj4RR9eP4Iob3sWZGHrcNfB0kFy9K1OyA5fxIZPLckJX6opY5fPNhrIr9MmqC7octZQLuTbU82ru731M135uYC2+u9s3sHyLe9pw57cu5zVi1fd5xpNYgR0p6SxvdNZgZFFhxUOcADW8Rvx3CW2PbrSodAdDLoEGxWUQOy74So4B2zfnH70CtTcnmYDkuE1i/7obOKtGMzpURSKxNyeJuWDZsonvHRY02NUFPZcCmTooIsO8mzU9OlXrMVTg8H8K5/lz5qsOOhWgC+d54UVPr5y0hzsyM/mjYvgTj5fjDVcTaHA6LUG9rsQarTw1BskLwf0yYNalXuv6p5s1vjSQV+yp847Gtg5sIbxG9dGgLZgr9dG2J+dob/iiZbiIMeN0TOGJsmtu13itTZCtDDIVmMF61DwOZRuQnROOyzBeEVyACUaVKTQYZIBRnv0LK8ix8dOjWW/p5rY2LBvbQ8PHxSywnbYZMVa8xl9hvQ6KbeS7scE/K7hILCGa4O/kF7r7PIHD6i4+coXvD6/0OWH13zEA8oJPNeP4fJluzEabM6X7LkANRvIf353lmK3TjY7EKAlV6OVDzUgp94q+lIEHaye1fcUxMdW/I/JnnQyC/acsVdHF6zzf0WjrdDOU1xCgpKxdGtBX4pfTnrFYiwh9k576TAqEgeBXxF5guFRwAoSKlyH1qHaE0fNLuB05iNdZDRY+rtp0dH4BsmwQ1+HbB+dTaPCUQTsVgz443EJuHl9Lc1/T1G2HQJd2eMDBPnDdk+lRfzJWePDb+51it03vvGN10WER9yvhmSN4KQZw7t1NBBNcfVlhbzJSX53qYjz1JcedHJyVv47V2OXWT9msa6e6Cg30QLyYOlo0c/xTr49cLfvbOXeOffvcKJfjcbREpKD1imGKUVvRF9YWVDA6U0POkRP79pSoIqsm8+/10++hNZ8fmNBwvErdkk34vX6VKPA4pMITwH2HXq3LDvs2e9p44DpbiQP7Ht69HrYHrvs4Efnr6cev/wFgJ+raApPOL6xxbaia13T89EanW9Q3NZs8J8cHjHIgxvUV8pve9vbrh+y4wX8Ku/yaw3K986XBk7a3R7dq9MZaAJ5sQf5LG9i4685Gbh+pQ/I4zYZMKdXAbPhqSZ2cOoJ0re+7D5I5pRLdunNdw9aO7e+edRofLV3NRpHGU+IAMOtzVPaCDIQ4KPHWFG230jeXOFIzMmXfomkx6F4erklJF3xoilIP6DFL+FGrxGAbjcK+Q5b0VXQPdno8gRoH9LdK55Y7GkoeowVDLDOJ9gBigkdnxgb8XvqaL4OQxxs2Yd80zzGnm69yqKZ52uNh49u33J5lfWFiP+mFy+Qh0a4Z3I3B+bJ3fHdISCj0bw6+7JC/qCc8POu0cJ0ALkks/WRnt4gXHbsOMPqDs/qyTf7wfK033oh3xeW99wDcq5Wna1L4LlGU9QJGXMaYLKODtYAmgJBU1wVDHl7JbhEpgddkeA1RyuAZPnVbf7mN7/5KjqXAjkHpqAcmn8aT+IVHrCvWNntoGoeiUDHT4cD74bkC1trgx/i0sQOVpPgpQO/tSJ3+NlKli5jTylr+hSHf9KPvCdzPOToBXJAXzqNbLHDn/JVbr2q9Yoqxm/4hm+4npzp60w6A/PWoBGYL/1cN0K6GkO+9hV8/PnrDMQp7/KRD/wzQrzQGaU/sBa/XDgnuexLEToAnclB8+yDaEa8wBoG0cG5t+t0tpZ7eXfR8+25RrOQnE08WIeWDqKtQx0mSB8QpKTap8/hG2uOCnCdh9YKi5y/C/M6BBwWGQFpIK9Lbg90txt+dPIOBPRaBukWs4PqZx6K3QGyh9drmFc+/ikKdI3GTreoghEjPSVUbMXSrY0O0NgQt8b119v+FJ/ffW4kX3MY0ciVPz6QtWYfjT1FTZemB29961uviygfgBHSx6f1zbgYnLQdm5/AHz7KE1ALaPjleZ/E+QQD/FCuwO7R0znhcUa9JRQXMFoDY/OFuxiSi75yJ+8JeMXX5/A+ypB7aDQBnIlvPOkw5+3lWFhiFUG8rYPk2QYVLdkSSwbQoRl8mSAAoDglXEN5wniq9STSTJ4UiqxG68lRI7ChyfCgK9zm9AB6vY45SHJ0sclnRQQVTTHyXYxQwUM6NBZZI9sVEBkFub8Tt3kzlkv2+SZeIH5r9tlxqMbO0udXv2iMp7wbO8sQ7HjOW4Od30H84hKvJ41Y+SMOdHnmO9xGa44Hf0hf+bAHazS57fLzmoo/WF+TW2j/bgxfBFYvGflWo5rNW8ZzjWaxTuYYhj0YgK+EgA4xmfRcyl9OEH7JSY91PKCEbqKDZDSBIvPVtbVmotOBoSvWPhPY857sUD15FKPb3ehAyUtEn5Po4Ku9Gl3Bohn91rimss5XfGiSyTe2AnrQFD6f+GDOt2LHQyZbPjgrTIWjgABb7PQKxb7YXDpiyR8yfmZjLF/gXe961xUfW9kO4wHNd9z9BfTO5zEe4Gz4I/YuCz7ItcvQKEf5sj4VtzH67tEjR/Imr3LnHFxW9lZfiB40b6/53fhagG9yLefO6BWN1q2DwIkccZDRgNE6JwSz/OlIhjyoeNmJnhxee3jiU4B0QWvOl1hfXVujQzcIcKAQjU43uqJ0EEa3DF42zT3hFKt3amMxZbMb0xMHrb0axL45m+Iypx+PONKn2PjdE0uBsQcVXEDGUwCfA0oO3ajZ7FmzQ080hSYufpHr3N70pjddv5bFjjV6eyeCHe/mbIDWT4E8yEvF1pov8m/cvBurF7yQvXwGeNDkgC7xQ09zr87Omhy+9ZEMdK47X57m5/iisHI90ZwF/9AevgwpMMAJCKIZCewaFlj8BQMkyLw9cK7JZjt9QOECRcW/kiuhXokcniYxstMrmFvS2ue5GkHQFZz9/i9n9A6bXfrNJcfTit0KRbOyB/i/ftcAaIqdHjLm9suvNR38MIdkgLH46afTE46sPfroRe8zGl1G/+OPpy5+ujUh8MT2/4M7eLmQF7rgeQZ3Izjnj+0tiIN+9vjNX753SfBbPnsTwJdv5aA85Gd7wB5ddDsr+tWFtwdrMqdvrdMRLN/d3HjKPAX4xSi+PmqgPbw6crzgEshANIAHfYNpHz25HQE585Lk4NPfaD/+5g7CjW5Ozvs4Wa+CDoxsuv17HhLtAP3sTRMpTJ/t/IiAvAbUdPZ6yuFR0A7brehzGZ3sovelC3668ZDJNr3sSqpcFJu1uT051gAOAA2f2AAd+NH5QA4YFVG+sY2PPXvm6XR7oluj8934lre85Xp6Z7Nzg0HzcwQ7B9ZhwE7QWWQL8lXRyYGY+cvPLpyaLN/og6sne+ji3JzLjwtVs5kDMkHz9MIgveCch8sfPEVTW2Ksr+h4xRMtxWH00IGBEgokCqABgeEF6bMXH+MlD+3cT94+umSaV+S+EXRAfVbBS8YvcSo4B+hbSvr461YHDtcrpZEuTUbWqxd9bkRfuytuPOQ1V1+ksMW+J4eDlcjic+hGsbEJ+Q3oMecjHaDYt2jI8MuaLsiGp6oz4gPEW17wuHD4yS97/C+H/qcYlwy99Jd3Y2B9QrT8AGhh64A/cOXYYLeY5Ne+tbeJbTS86xPAe+7Ri17O5MVId081foB8MRaDvY0JLF+w83h33P0T7HXO5eRqNLdfzgmMIoFcDC+tA+s1IniH1zzcQPFnbB1Fw5u99MaHrtgVE1/wcl7hVXwaTeNINh7oSwGH148CFKFXKHt4rdlw44jbN4rsaSD//Y+mY1tzKQZPMvrIu5U9URU0+wq6hPKpxgJLL75iBGzgVyRGqACzBdDIeHqyJ2f8VqDo1niN4pIPPsUnZ+LwdBdL55MPT43NF6LvXnGd0Pni7QIRj7NCd7ZyhG5fPtBXH9l0hBu33DnD3jy87juf8oc/SG+6Qfoeg2w2P2UXVrc9sYkLzfq5RkOABWyEoDEe/GvYjboNC06+9EF02C2LZ/WRVVAKtXVyEunQFKAnFzog72dqitUtblR89HgS8JEeNunpCwcH9tGPfvT6UE2H19KefIAdzeVJqtkUcw0P882cb9aAnS4B9kB71myxDa1rNLEpPMh2NuizLx7z7KHRVXzZ1Fz25EgezO2H5c38qREsrVjO81pYfnGITfGRlXO2rfkE8wXQC9HC9LVXDZQ/edJknmryws76VL7B6StYmvkdD/k7OjhlihegPzQax+8UcVCiQMrQCqQEOXiADtIHSpQRLUwHBPE0KiiFHT+6UWLpt+dpBfPJEwpf/2qTG53/1sZsOhQHQof/LEGD0q3B/JMAnghsOECN5VXRHGS/vID1Cx3mr4KA5snww5oP5IB4kymvvaL2dNX88cFky63R65Mnc59Z/KoaTA4PNE82SG/z4KTF92ooXvrVR7e8eGA0jWaeT+JY+eYL8ifX4iuHLkPnKmd3kJ70L+y6efzBndxjIBZnlY6HDFMCK1jQHGbAiK85hbDXqJIFKyo0iYxu3U0mQfTjLdn0V7QwHwo0X10QvrjodUExV4zWnmI9JUC2HIRi5LP/wV+TKULfRvrihB8a0OskXq9tmoyeXnUW8xPQT1YBkOcTWnvWQLzFiU632MyNgM586Cllz7zPI2Kls30N6WeILgrxic3nTrz5eOYxaL20OyALndV53idGVxt887bgbYMN5wfLzwlkF7JTPXUedDs/T22XrvXyg/UVsAnvYo125iLZFwHNv3FdjZbzxjUSHaxj0cwdnhEqRjL48MQbP7CfndVDhq4K05453iB/lsamf6pbQZLvVdHhmtPlUCpERatI8Xhd9GtQCkCTecVCB2z32xZ0eTpqXPuKGxYb/cBozaZEs2kUH5/ZV1ho1hWafUCukX0I8NIFNaZG9sWPfxHKk4vN9oB4FJtmA155xW2fLpgtsuUfHVjnE4h+QnFBehpPTF5++OTtwtmQl5OF7Kb3KaBbo0HnoslcMs5p/QfWYbpX/+4vj3n74JQ7IRlnlwx46ABON2JuTCmh09jSJNFhWdur6KBkRk+v20gB4+MU2TPp1njINpInszb6zQ0FqMDolnij4oI+j/WDTbKK1C/hsu0p6DdONI8m8CTwMzk6gcL1Cuogfelg/tIr90UvDlhsgO90G8uLucbqEGo0+xCdfYg32faMYvF0Egf/PJE1nWJz6Wi4nhp84Rc+DUkHYJuuxjuwt3gH9MPifgzt88Ocn5pN/gCfoFgfs7NQnhurAefgMtTAzgj91Lfr08cXgfhexM8znqu7JNsGWKMY2zPfdfugZNkjL+gOcAPpQCQpXWjAWnKC7EheCa1pkgUKS9EpNj7QjdeBKmJF22ugd3g63e5epxQm3n4nUIO5/f3tmMLEq/kUBtS89KMpZJ97NF+vqPm1fkI+8NOe+I1sG+WquPmLTxzkyhWecme/p5OG69865DsZcRr9mYyG4xc+Mbls6AZ4ymG2Tmj/3MMfJHsnD9qDYoDyJ29824uFvXRXFyu/YF9u0Dtz5+Py02idB1gdJ4LiXPsbI3q86HDlT4hndVzRJLTKQDTrnDlBwPbjVQA1IkCTCE8aOmrIgLwkkVnHzCFZGA1fvOQULHBrW7MHHKY9TaYRFaLPWmT9ljt+fvgnvz3RFLBm1WBQHJpLE0H66OevWBRKXzK4ndEcLh4I2MqffZKhswc00cYFrcOAXbrE5MLQUK357fXZmg0NxRe/rubpK84+p/UEXd1PAb74T59eK5Dlo1j4J2f8l4vifhGgI6zJoDPSaM6G7rM2n8KFO9prgc5q4fPXxktgAwPgXM1wGj3nElQzLG8JMCqmbvj26Tdfp+yTSY+bzkEo+OSTA2QdEhuaqM9pksymgoSKzxcmQJO53RWc35rw8zZyCtHP4BQjfoemGHoVYYN9UCN1sPzTrPjx8av4+QvpFE9QfkF5QhPnYvvpcnH0OVOs5bb/g5xtdtDo5J+b3pPa/jbaiaDcBudeuOvH9hfiAfb53WcpuRELsL6TX8iGWOWlvNMpXm9BnRmeE5J/ag5aR9s4wcYErKOdew9PtMA8BzOyuMqWLlnQnrXDpAc6eHsV1+pAwy9hkt2afXOFJYFBsiWwRldAmtJcktnUNEZPM7e84vQtHBm3/dvf/varyT7xiU9cDejJoGErfIXQt5ial13+kIf5gZeP5tCcDoBHHOXA2txYnEYYf3kA6WQDj1g0WjF1c4vDBeLikQuNlg7+o9snh84OaAQ7P8FeGOx69x/DBTmqGZybnIj7RaHckZfrct6Z0W3Nbrk94Y6+tHyOdo5PwclzVWsHEnS4mO3BBNdxI4yWYx2kQGtA83SWoGROe414oKLZQrZPXwWJhseXHRKNV0M4PPSedn2W8bOyd77zndee34/UfIq3AuYTn92MvT66NdnxhFQY6WUHnZ+NfIPm6ao5+asR0MuFERjR26t4rPEZ2SYPNA/d+IAnVq+9bHXhAHyeenyOFtDLr1eDfPtiUSx8ltd8LDePAbmFcrf5dkbOy1sI3RDPQrl+Ecjf/CIbvlZ4eKIViDnFu87Z5UPDV4LsQWBtX0HYNzcmCySoJK3eiiSbktdnDlDQ6c8PqPCsFVVfGEDNo9EUmc8snmT4PMn6o0tPP3aBgy8GyE+Hxk+8CprOmjmfxICnS8G4ObHPn2Rg+QM1Fhm0dLGPT3zs01O+ajpr+3wyRyfLntjoc6Foti6TxXQ0P2Hp8Z28S29PDOGC/HjS+jxlBKe+YHXtuOfTxwW6PNH2VT445XeEdIH13xgfMH/Mz/Tc7T/X7jGsYmBdUBBfhbCKc9SoYBR8kI4Cr8CgefvGoDVUOD5rtG/sgOiwZ9RQFSToCwCf0RxGv2DsVdETrs9x9KVDsS7YEyM9YmLDlyns1MwQj8Olx7hNY89crHjRrIF5OQAakS2IJmfs8ott8vjLe3wAH35r9kG5MLpYXFybf0DX4sL/19695EhWJFEYpnstjKgBEo+9swcQIDFgzDaY0PVF6Y8+8rwRGTSoRxzJ5C97ubnZ9RuRWVmNtfHD8kfhau6EGLnRFAWfy59HWH3FBSmwiM6+EJEfxYDuCOhJh3ZtGz/z+3/BTXtK28hJnOCQvkA3H0qUDsGGJQuQ5XjOJ6ctufDTD9o9TH3B0yK8goeP7pKyG6ukp1tiIgmGxyujbwgrMkUo6bphQKKWxM2t3x0ce/j4ke/8dLhaxD9ybIf2kIz9QzatmcNHjj/5wk97aw7FC8bW2E0Pao/mFZrXSw8JcukOxtuGxvTp7/quhc5n50Ly1rwpeN3roRSF007UGC9Z8faAQ14dfcmlNZ/Olc83LQrmNp4hHfWtbdzew81Chw45kuKUS4QUN5exHC1ZrJvXng41T4bddMGVHnN9ESFZyBjTU9KVgIKaLfNeH+lSaAqg/73Tz57cSF6hNuEqOPzGWnP5YU5i5Lex+ZLEIUsaT2l9cxUFxIunQigh8fDV2Jpx/kA+ljjGWrLk8NLdfLBuj+aQ10efS/dWo7c2egVXvNl5hnjaq3iIF19fQfKIDD0VmnOmz885FZs+vo1Ldl7d5yOk7xXcLDLIeM4vjAsoZ20K6icHWoFzgIHc6iTXAcMpb4wKTMEwzod09MRPF3/0zXeb6StCrxLWfUYxVoRk+cteBaF/zpHTGuu7FZFXHgeJVwH68sRBGyMy7bU58pKifrrjhXgRbNF6yPSNGjJHDhU/LRtAP75epz1o3Oa+gRWHbEfhHINxsW5tedg9sXNXOvlnT0i/PSeXDDK3+vTbL1nnZt/Ownn750H97Zj04ksPyp/G9Renz4AnnVcoTuHGuQbbVEihFpUMK9OaA4USK13Wgn76AC9aXsSOsTXJlJw5SbM69BGZ+PHgrTj8YNkrk+JTZNZDcvR1EG4IT318ZLxmmvc64hU0coj27XOBAnDQJQyd6eaLxC4h2k98yBpdxUHRIvMSMV42FDVexVOxdaPiWd347KH9+5q/f/KTf+sneoblW/4ruZNveYpB+9Z/BeRqydSKS4XmnBRa/5kJnwP+KPkr/4J1uFq7Ar5kwm1nDoojtSDwBV8gcgw4JzCwzq3T5PTNwRo2Fy892UxXOtiX6H3GMSdZrWvJStoSF+HPd/shI+jgVdGcFqyxjfInpAtJZq3k9krim0tF5kbjg3mHK9F7ev7xxye9wI7CZTs/xfQT36fPcFryEqWko6tbUqFZ7ywUNsKf39b5QTZfxIFuDw2FZR+KrC9F2jtKD/5XEJ82OrFrV+vs/tlCWz18Jovo6eEkNt46FJvzsnbKIft/5FsoLq8C/6nzfqOVFCkt+OYlSQdmHBkXHK3NmqPDeA3V10o4hZLOtbnAV7s2KyRJU5AlXImFVsa6Ly/MeXVSOBJxfTxt91olOe0f3BaKq9dGBaIQ9B0u+2yx8/vv//2X0/zhx3+L8NOekT7qScxGr4bAT69B5is4sAf6/D5jxUUHyp9s9c0rH7QeNH4Z2c8d7c38+gJne2LXIyjmUbDenqE+H89CiyesrSukB4mJvXdWfo+1P1DEH2eRzBJZbWuPsGuP+MxH4V5oNov0C5x+B54gCvHBVXDBePnIFxR98/oCoJ+N5aGj+dUhwSqIZLV0mV8YKzKfTRQonoozO/ZvTK9xSY3XPH4HKPklrNYYX0neDSiBtfkujt1K+Iq19RJDMiiybkg27YeMp7LPG/45j3UPDl9s2Jcbm1yyqL3wB0+29PnuL2f5TZh+XGANimX0Kl6R48Mz2vx7Fae8s2zv4iFu/vmTNxBxP7Hy0Yn39nUC36nnXminkVUeAZ7G8bfWLQLWSuDGy79rZARndRpLznS3LukLKN6V0Uf04UMll6Tfz2afbp3fb8HvJpHQ+p6EDsjrR/a1/EHpqGCyxYbPQW4QN+HeZnxsT+TaGzJWLArEvvjgFdWchCHXHL/yjc5+U4XvblrJpaCtse/2yu7Gxr9E9+0rXzu3/AnnuDjzcc8P4jWHTjn8J+LNv9W78nCOQzrI0aPdh6I4+XzeX0U7dSe78+m8ouX5M7jvXqCjlC4YQK1Fa1i/Ayv5Vka/YDafjL55fUGXOOYaWwNtN4PWU16bzvQJNnmyCkqRSTprgM8aHgdEh8QukemH9mHs8NwGCpcMWbrp8nnH65gEZkfyk+vVrCRgUx+Ro4Nu/xjSzaaI8dvX/tYEPkXkK2sFhx8PPewpUuPiwpYioo/fyBzd7JL55Zdf7g+fzuoRvQq8fH2FFuT4t+e4FE/9E8kmX7/Y+veGznXtlwv/D9yyl8F1IGpjqLG2TeiD+Q6wuZIJzEVgXt/hahUFJG+91xk8Eicf2QVtr1duIIlm3dMZ8CNjxVHimyNbwuvTYRy/xNOmq/15zVI4W7h0+pmcv/3fn1SI0pFNhcKOPl+RApAAkmH9xKPwPZF7IOBVZD53+DaNjKd1N7AYKE7JxWf+9SUIn+mkg3749ddf739ez3rz/CUPWvNaxI/WwjlePFpr/1FnoW2/K1tfe6VzY5o+5yoW4t7bQA/gZIK5dJx212Z8cOXHI9wkVrk+ehRsibOBbz3jORvSFy9URIiuEppsRWfeuoCR7yDMKQSJ0bdoDkZAtRJLwuLDTzc+CUyP4pS8bgo6yUk+sgrautZcvrChmBQamXym01fl/Zk69vhlr2xtLOhjy5w+4oPD97mLPreh2LDLfz4pnm6o9CpA/7BTkVlzy23B4QX6eoXt9dmYHvp9GaLYxIzfnQvseYFx1HhxjvkZvQp+b8zC2s7O2ot/ZVsXSzHyWu1zmj5Yx5vNK6yNK7y3vrhbyGgwzunWHHyJv0baILK+SEf8jWH71hFdFV66SpaSFQTQnCRRCMiTWTKZT1928ZOXuN2AfZsn+JK+ImMXP//oU2AVrrnmvXr5C1r8AwVojTx+BW/MbrdvBW1ewSgSr3wKNf+tQTyKpwRRDPSR8X/Gdav1SomPP/h8ha/NLz6hYmKt3/fsRmv9jB+c40U+w5XsK6BDjItzWH3P9CYfjJ2FnBF/DzRxS7f2mT54trY+voe7VxJgD0LQEaSwcc6ZR2QlkU3hybn40B5gwcSfbvP0QMGiqzn6S1Drkg3oVWSKq6cyMrZWopVIydOluPTZME8GmaPTZxyJnw6tpHQLfPfdd5/98MMPN57W7Ae139a6RdngN/1sK3bFwZbbhYxi81rKD+CbB4KHgxiYZ4v/ntL+H7RuM6TIkG9Y/byMffaKM+h3Vv3TGj4Y8yGezgvO/rbpvuJZ4IsewRp/Az0r854sJJ+uCq3Pts7A2u41Ctu/winzHv/NI0wSMcPggJG53azDSOnOlwDpKGkRGSgAxmSjtatPXwUmKM1pzQucdvnADeL2oR/lU2RdQime+nTGly8StcLUVnT9w1G3gOS0JvnTB3wyJsNPCd0NyldjrcLzhMXjdw8VmOIz7rNgDy+fMehQXOaKu9h049HP3/zy9T0/0rHxbp90eHB0Kxc3a8+Qjivs2qmHPfQM8ezDgZ7VlQ0U/xVZpweJnVgpNDG2Xj7qL8y3hxPZ/bO4WbKJnIaUNdc8Bzo0aF3rgBrjSw5/vK2fYB+fNXq08SoCiSlQQVKUdIi9ilpyeZpL1vMpzUZ7QHRIYknv1vDUk7w98cgqQG26FRQ5iQ0Ozxp9fK6o+UiPIsBjDwoJsUmeXb976a94KWR++hzBD3aM9fmcjDnEhjb/JY8bzMPAZzNfcvCHXTECehDwjSyeH3/88fZFTg+XYmYNamH7YJxPyURiuHpOWIfW99zrn34Y128+PVr7S7796ouB+Imvjwtk44GVY6O++eyEcwxXc4ublU1YyoFgwttfnpwqGMbaHC2hyaDlWwrWa+OVEALkid+8RPDkbgz0bFCyV/Lom7NPSSk5kaKJV8semV7h9Om0Rs4hRd73ydHPPj59MorPuEITB/JkyCoAny+///77e2HaE/htD3DbeGBYo488P8gh82TZVpg+k+F34yocvBUagsY9aBBeN2B7Zcs+HgFP+9Z/FXgf8bdWTvBPu3gm/whiQJc9e2i50ZD5U1d2W3tmLz8Xz/jvfxJccAUPMKfEnMPRIk5skDOIOJkMZNS4NXN0JAMFA18y1hojPgpWr3tIYoDXKuAn3n4LgA7jbNWvZbeC0Epa+tnqiwmJ6BYC/XzAw2dxIGstGFtTMIgtchUYv9nubzJap4d9637mw39Fo6A8EPIRH98q5mwpOvz+crO/iOVWx0sP0iejBa0YArv0+B9Cu+XoRMUKhT2/XYsXznVkfRH/ytFt3NnnI1zZRfii9hW1rm//zs6t7/a3b4gnrM2QrfoB78qmSysvnaf+rdAkVMy1KTNGNgnmoxTGs4ifI/W1AlHhNhesZdd6fbDGxgbBWDJI8vjxuTUkV4nrJkAgGZF5SaUAQPJ6fZPYisgaHXRXIGxpHRh+aP/02Is+nl5TtPT0Csg2H9nyD1ArFnro18evQPHvbUZOorDPR31r9ln83Yq+4IiPDH/sgb542SteYscf/17Pt5fthT/xLXac3fhOeg940gGrj1+dtzGf6i8Fsvi128djn0hMeiBpWxfHbF3htLXjcz68KTSHVsBhleQI2CgerTlrbX6dTN76jiObgtbhKojmlpePIb8ksGS2h4rGDaBQzOGRpAqGPsFVTOYlH146BEQS9jlMsuOxLzea9YgfePDr4wOJGb9C8cpID2LLq6inqSJ1k6XLWJ//yJxD8rkRyPCLHQWEOjN9flijwx4VmwLt4WI9H7SAv4JKrwfDF198cYtVulpf7Li+Fm/92ivezYsTnWuwx5Nfe1JyWmewlLx+ZyxGfjZK/xWSCXQvisv6lg+g/6bQBJkTkEAObqD1OUY4fskVll8f9CMyqw9aW/5a/NmRIIou+fh8ZWuu1zxPLEWGKgSykqpN4+lWUGQSUFH4ulyRdBhacvZYgtJRfCRze47o97kM0V2y+xzkK3w2fXOp0PjGdnu3P/bS76A8CDwYfF6ruNpTvvCVLD/5j09x8p9PdHmVxJs/PcCs0Wds/euvv769EdDVfjbe5qDxuX72a+uHcwzFobXigKD504dgjJfclax+5+6h51YzPuUguXDaAnPxg3582ncLrTZyEOtEPB1ifD3RIR4y5pbvHMdLX3aSq2+tZDJvbBNedSRw8oKoyCSwfjISDBkLLp321d4VhcC4iXxGwuMw8Eje7PG11hoyBnN4Fa3biB/seJXzBQUbblTfCioc+vnIVwVFT7FWSNoKL1/5381kX/rmFBU+5Ib3Kqi47INeeySvjwc/f+0LmeOb/2DeL+D2gIlH2x7x1j8pPFuDc5wNpB/YKibJxNcYGuOL7JnsQqzEoddHbxPxaqExfRufK5x+LN+bQnPYFEPKCWRwha2ZQ8sHOQc50JpDg3giWDvaEjfd6RC03bQbCCSVTXny49F3o1RESJFJTv2+yuaTVkKKgSe5H/5KVAlcsdLDVzcmtBdz+nxC+mQUKx3gMP1Zu+w5aK8sfCXTwVu3L3vnK1vW+Cvpu2kVLT2KOOC1VrHhp0MS0W3eWGzow49Pnw381uLz+ki/eXvk555X4xDPieV5hpPvHOer+Qi02W0Ob2RP9clrxdmZKjRvFf2iwCkb6N1xaL61K543hebVg1OQw2E3ElG6Y1Twdy2Ys96ato2j0DrnClLQz2mgz2cKyUSXRPQqZ12SKEIBlUhk8btRFBs+r1bW80sMEFmvo/16ljV8JS/97JELbJi37jZT5PjdWH5G5TCtkaFLodufMV3k9fG76dqTB4iiUrR84r9i4LtiMU6Wn/qgz3c2+nKHHjGSaGDMBr9RsVWYvn30sKjQ8MaHQn0tm/Vrlxd2/KgPpyzd5SdYMxfPnkXzWvtD+s0b91ByDh5c+tZPpOdEut7Dm0Lryb/ORDemj4GGlMe7G9xDtl4/najEggJXkmhbTy8ettPj4LPtVUsCSqSKzLz1Ck3hSCxzkk2yS0D6fRjupjKnj0fQ2VUw9NDZvvOLTn1Fa41+Lf2Cyzdjv3Ds51Ot4eNTduyHfthEN6eIKn5F5Wc/Hiz69uwWZp9cxQP5wj9xwUsnnuY3ackjeq150nt17H/YMYfIgvbsX62R2XZ5tg3nfHEB/tqXOXT6Y+6Ux49Wlpw8FXuth5o3DjGCtXkiG7XZObHzl4VGQYZ2I1C/9Yztk66A2pR+bbJtmuzOa7OdLsAPySSX3grJuoITNDxggxKzzyhIX2IrKoUg2d0g9Jmn05zkEg+/sWF/xmQEjD387DgsiS5BzfFbn2387Ck0h0g/8spIjl4Hrd1EIJc/isTN6HYjp/B9HtWS47ubkn9kk+NHNrpFFY8HkdY8stds8xvImmPz22+/vd3qeDuvpRPnemexvK3VXzyah/ZXnPgDV/qsbz+yr+bpESP77LdpFsng14a1Vf8ZHhYapPxUlvH6Nouaa/Ot2czpzM7pQ+P0m0eNEcTv4CWkTXi1KtEkHrv09frWK5hC05f0ks+aVzEyEh6PuW5lOiWlwgKHkh9aNrTs0Ue/sURXxPR5//dqoq8g6VZ8WmPzJbo2eWvssaFfgSoMxeeVjk3zfeEhHsWcHvr4hM+a81WU5ipwxIYxGQmRH/b94cOH2+9idtPhrYVtr6i18GwNrua3b2/tr/krf6A+3lpzzadLXOSAs+rs8UaNw9ra/iO8KTQHW5DhFF5jgBeP+Q74yuAGAvbAyAAd8Wx7zuEnx3G3lSe0ZJM81hSSMX7JrpDwIDwSFQ8IgCRSkG5C64qLnMRlQ4KVyA7EKwZd1iSplj0+0d0cPcZ9yLY/Rasvzg4UHz/FsTgUE3rM05Pf9enRV2yKDjyNyfGFHD0Iv7FiNW6f/DFfAZE1D3wyZtMXQ4qNPXwVZujsTyyPfuOzhdZ37oQ1tvJba+60vXpq8Qb7amzd2AMF+ZzmrGH5FtlNd9gxngjeFJoEsomEtCuU4K7HQ45zzYVkrIE1waklhxxgPObJmaufX/r4JJgkkfzZlbzdAvhsUKF1i0kkbToVlCe9W6zXToGWXPTqS1BQMPTwQ9FJdjCmgy8SU6KT4Z/DI8MffN2k+PjJ7wqqG8Wclrzkpo8v2TZHhq8eEPZQLPH0AAAtIk/WHvEqymwCW8bsatPBFzq/+uqr20OtB0qEP9vBOAo73pbcri3ohtaKTdT62n7Uz1bIb6QvDnLDm4cfucQTzv7p7zm3/PCm0DZpA6EEzaPmHMau6ceDHBoefRs11od0ZC8K+ulen5LzuYG+kquiw2eevW4sid3rmlcEPBJeK3ElmoKUSB429FtXGHSZVxgKR2tPdNLHNzcLew6LL/jTzy88khs/PvP1O4Cgb14R9frIFrDPHw8CsCcFoNiyh3f10cV+sfdQINfeEDvtKXRuHjZ+nvj555/fbURBvNiBXdu2s4Tlge2HeDpv0NrL7gfijfIFmiNzAh+iS5w9PP2hInGG9TnbdC2WJ+wc/i20m2cpORlP5TeBjw6u8ea05h0UWl3GYK75ZKAWrGcDskGHROa4wpKwxiBY+snsgZgvefABeQUgwRTEN998c/vbfxWKIiQvKdNVcfGtxMTHJp+s6VszVjB+Judve7hRyEl2xcFm+tr77q+1bINk8FmNTQ+Nn3/++WbLN6PssKfg84NeLXnz4MsU+yv25IsNtM/O66effro/qOiie5GNpb+KU1ctW9m7wsos7CUS2/arL5bOw7esHuDiAsXjbB/ZfgW3G00ln0EEBjq4xmHnzvlzrg2sjEM1LpnM6WvxW0tXchLWTaZgzJVc/Hc7SRz8nvwf93Vbw6uweuWzXvH5ulziudU8vT3VJBV/yPGn28pcMdJn260J+Y2PX/zvNZJuTzbFhaebLl+TJ2NNMfKVDTz8wYfs07qkUGzW6SdvHx4MeOwPyJCHfHNT9TaQr/j02TRfMvKjL0V6lY4fhbN/taZdW82F5ratD8nZq9Z4KZ76sOu7Vp8ee0Y+p/kGsocKaOtDMvVXX219ePjqeAVMGyCUQgeS4ea1VwFdPlRy0RG/FrTxmS8B9mt8cj5jKQgJIRHagyKwJhHJWtcPdEpqt4FiIOs1EP3222+3RPQqKejJ7QHjd4tIcr621j6AXX3EBt8VCVlz9HbTkOOP1r76Amf1grF1+vQVjadyN6Gns1sPKrYeSsgc3fbHPzroNq9A9fNBKy/o9H99s8PveNpne9x+YzjXgn5+obD9ZFYuv83xA5ZveQOd5mshXrqchbzyIx17Xpz+hbWzfYj/stBKDFjFG9SMGqPWOAvN4zGXnuSaiycUsPiM6zevKKCbCY+bS4IUHHoliaRWbAJoo3j0FQ4fJBaqyEpySeW28HRjp0LLDzwluh/oehXLT/GLssE28Es/W/WTozdesvbTTVqs2A0O0A1m3pc1fDY2z1++s0/WHugrNohM+zLPJwWpzxfED74pzP2ZGr3WAf/Szi3OucbN8SPUP/mbz6/VsQTa9tZ40RgPfWJkn37u2YMqrG+L1XnqT8Z5iBfcC20DzTgY21SgICUdfEZWVh9faysHHSaKL5nWV4azikCCCApeSej1sJsnPmtuDjeaZDUnqXzWsEco2RUvfoVFv3UFSt63UBXoxgN5lfJKVWLzUwz54fXNYUl2+2AL6DBOB+IDKhaKRVzFXKsYgf6Kjo/4+IjH/pFCYAu56ToHLd+0HTr/yLCT7mLIj1oybj+/aOzVmt32AO0jbD+cc8k03xkvrmQALyonzT/zB5pbar49Irnio4Mf4xQDsAb5uTpAP7+gvvluNLgstISgfgbjyUBPl9ZXPp4I8O18m11YRyA5JA873WYSDFlTDHy3jo8urdvOfIXmMw17kreEk5wCUXF0Q1pnSzLSUWzIe4XyKuVPvbEldmzjqejY8irinZ+OXhnbK35kDFr74Td/4jeHD9qzsaLAwye+9uMJr7LkzBvTi/AXY2PFw0egj13+47FOni17sc4n/yjUmwJ71iOoDVfjpRPs7PzJwydoD/j1V+fSwjj5XdNPD3JOviDz+tgrfev1r3Daw4fMXxaaxYKs3wEbN9/Yeg40jk8/JHdFkFz6tGQcprbDlggSn0/x2IAbqULIX2uevL7+jlfxVJB0mUcKK51+OyDbfQVORlJuEvoc599sufnwOBTroNAUorFE7uczePqigkxy2QYyERSj4lIb8dP+u5n6dtCe7F+88Ilhetuf88bPBzxiST8998T4KNecvXz55Ze3L4+8Nu8ZQn0tG63Xb42t+mfbGjRvrn4wxy8E1hFbC3zJr47tZ1Pr7JyRv7siNs1nJ15I76Lx8m2h/TtH1lF9gS5QCWdYW39ldw2t8Q0MJHsFCYNsXtJsAkL2yJckbEgKfleo6aerAuvpbl3fU0xS0u/fjHmiCTiih1z6tF4bvZbS5fbopmqdzl7j+A6K2I3p63Jfy/tFY3a7DfnM1/ZsXqsQmuMfv9ufAjPexPfq4/WaL16FzeHnC1668ts8FDcy+I217Qncjv5SlzhVnOgZOpNF+q/IWnSuLfjE9/wNp8wpd4X0IA9ID9H+lEMoTn8V9+pax2ygINdu4Nqgtd3YqcPBdrhAB5wyrZMpIRy+zUtWibdBxRNfMlr+CAw5wSqhkjUmU+LqS1jJSUZC+bdjCqPPdH0W4qPkVWT08A+s85G8n5nhpR/4hc9NZt4+FAMb/oCOpyebFQ3YA782oa2Z1/LJ3sxLfIVmzR7Z8nnTDWSezXSuXvIlEz0VGmQrohdP/yFGfhbTs7WO8v0KrZOJ4t/57MefT/blAXvK6ofWFvHuPF3livP1ud+YHUgGah8Bbz6feFNo2voJRc3BGk3m5IFkzeFxqB2WPkqX+Xg9hUt+yRWPwCxfAbfekxtPRZqcVvLhzz969b0eSkLykrf/DbMCIZc+rwOKkE22FJobDPq5nDX8Do5ddtxo5ozJ0eGDt8Lrn+xYay/iAnziczGg35hfdGr5wF/78HnNK6v5vqm1R2M6EPvmatm03p6yjyQg/X7s4VbroYDnpEfzUPtXwcd8Bnrrw2l3sWtLoLjs049tvH4DO38X/vXhw4e/JwL/4B/8gwf47LP/AMAZuWkmwpFXAAAAAElFTkSuQmCC;" vertex="1" parent="1">
          <mxGeometry x="140" y="160" width="120" height="148.62" as="geometry" />
        </mxCell>
        <mxCell id="8YmZ6xVBmyaVIvuBDo67-10" value="Mary Jane&lt;br&gt;" style="rounded=0;whiteSpace=wrap;html=1;strokeColor=#FFFFFF;" vertex="1" parent="1">
          <mxGeometry x="430" y="26" width="70" height="30" as="geometry" />
        </mxCell>
        <mxCell id="8YmZ6xVBmyaVIvuBDo67-11" value="21&lt;br&gt;Banker" style="rounded=0;whiteSpace=wrap;html=1;strokeColor=#FFFFFF;" vertex="1" parent="1">
          <mxGeometry x="280" y="70" width="70" height="30" as="geometry" />
        </mxCell>
        <mxCell id="8YmZ6xVBmyaVIvuBDo67-12" value="Mary Jane is an operations manager at Flex Bank. She lives with her mom and her little brother. Her daily routine starts with grooming and breakfast before getting out for work. Her office environment is set up with noise and light sensors. She has desktop in her office, which she uses for official tasks and a tablet for personal use.&amp;nbsp;" style="rounded=0;whiteSpace=wrap;html=1;strokeColor=#FFFFFF;" vertex="1" parent="1">
          <mxGeometry x="290" y="120" width="250" height="170" as="geometry" />
        </mxCell>
      </root>
    </mxGraphModel>
  </diagram>
</mxfile>
